<svg width="33" height="33" viewBox="0 0 33 33" fill="none" xmlns="http://www.w3.org/2000/svg">
  <circle cx="16" cy="19.1501" r="4.6" stroke="#F9879A" stroke-width="0.8" />
  <path d="M14.3057 19.1088L15.9586 16.6294L17.6114 19.1088L15.9586 21.5881L14.3057 19.1088Z" stroke="#F9879A" stroke-width="0.8" stroke-linejoin="round" />
  <path d="M21.599 15.0771L21.599 15.1471L21.6353 15.2068C23.6182 18.4726 22.6341 22.6819 19.4539 24.6128C16.2736 26.5437 12.085 25.4751 10.1021 22.2094C8.69302 19.8885 8.96203 17.3612 10.3038 15.2269C10.6539 14.7739 11.2677 13.7956 11.6815 12.7318C11.8901 12.1954 12.0521 11.6267 12.0997 11.0857C12.1328 10.7085 12.1111 10.3345 12.0031 9.99186C13.0164 10.1293 13.547 10.4492 13.8484 10.8025C14.183 11.1946 14.2739 11.6651 14.3672 12.1483C14.3715 12.1702 14.3757 12.1921 14.38 12.214L14.4951 12.8065L14.8326 12.3061C15.061 11.9676 15.2163 11.4392 15.3216 10.8589C15.4284 10.2695 15.4891 9.59304 15.5099 8.93339C15.5308 8.2736 15.5121 7.62419 15.458 7.08802C15.4434 6.94361 15.4261 6.80633 15.4062 6.67847C17.0473 8.06722 17.7783 9.22551 18.1281 10.1883C18.324 10.7273 18.404 11.2147 18.4525 11.6637C18.4675 11.8028 18.4796 11.9428 18.4917 12.0812C18.5174 12.376 18.5425 12.664 18.5929 12.9234L18.6406 13.1688L18.886 13.1211C19.1494 13.0699 19.3637 12.9945 19.5338 12.8792C19.7094 12.7602 19.8236 12.6086 19.9003 12.4311C19.9738 12.261 20.0122 12.0683 20.0431 11.8681C20.0547 11.793 20.0646 11.7218 20.0744 11.6498C20.3847 11.9448 20.7003 12.2768 20.9654 12.6982C21.3273 13.2735 21.599 14.0238 21.599 15.0771Z" stroke="#F9879A" stroke-width="0.5" />
</svg>
  