<svg width="38" height="37" viewBox="0 0 38 37" fill="none" xmlns="http://www.w3.org/2000/svg">
  <circle cx="19.5" cy="18.5" r="18" fill="white" stroke="#F9879A" />
  <circle cx="20" cy="21.1501" r="4.6" stroke="#F9879A" stroke-width="0.8" />
  <path d="M18.3057 21.1087L19.9586 18.6294L21.6114 21.1087L19.9586 23.5881L18.3057 21.1087Z" stroke="#F9879A" stroke-width="0.8" stroke-linejoin="round" />
  <path d="M25.599 17.0771L25.599 17.1471L25.6353 17.2068C27.6182 20.4726 26.6341 24.6819 23.4539 26.6128C20.2736 28.5437 16.085 27.4751 14.1021 24.2094C12.693 21.8885 12.962 19.3612 14.3038 17.2269C14.6539 16.7739 15.2677 15.7956 15.6815 14.7318C15.8901 14.1954 16.0521 13.6267 16.0997 13.0857C16.1328 12.7085 16.1111 12.3345 16.0031 11.9919C17.0164 12.1293 17.547 12.4492 17.8484 12.8025C18.183 13.1946 18.2739 13.6651 18.3672 14.1483C18.3715 14.1702 18.3757 14.1921 18.38 14.214L18.4951 14.8065L18.8326 14.3061C19.061 13.9676 19.2163 13.4392 19.3216 12.8589C19.4284 12.2695 19.4891 11.593 19.5099 10.9334C19.5308 10.2736 19.5121 9.62419 19.458 9.08802C19.4434 8.94361 19.4261 8.80633 19.4062 8.67847C21.0473 10.0672 21.7783 11.2255 22.1281 12.1883C22.324 12.7273 22.404 13.2147 22.4525 13.6637C22.4675 13.8028 22.4796 13.9428 22.4917 14.0812C22.5174 14.376 22.5425 14.664 22.5929 14.9234L22.6406 15.1688L22.886 15.1211C23.1494 15.0699 23.3637 14.9945 23.5338 14.8792C23.7094 14.7602 23.8236 14.6086 23.9003 14.4311C23.9738 14.261 24.0122 14.0683 24.0431 13.8681C24.0547 13.793 24.0646 13.7218 24.0744 13.6498C24.3847 13.9448 24.7003 14.2768 24.9654 14.6982C25.3273 15.2735 25.599 16.0238 25.599 17.0771Z" stroke="#F9879A" stroke-width="0.5" />
</svg>
  