<svg width="292" height="323" viewBox="0 0 292 323" fill="none" xmlns="http://www.w3.org/2000/svg">
  <mask id="mask0" mask-type="alpha" maskUnits="userSpaceOnUse" x="0" y="0" width="292" height="323">
    <path d="M0 20C0 8.95431 8.95431 0 20 0H292V323H20C8.9543 323 0 314.046 0 303V20Z" fill="#E6EDFE" />
  </mask>
  <g mask="url(#mask0)">
    <path d="M0 20C0 8.95431 8.95431 0 20 0H292V323H20C8.9543 323 0 314.046 0 303V20Z" fill="#DDDBFF" />
    <circle opacity="0.3" cx="295" cy="142" r="105" fill="white" />
    <ellipse opacity="0.3" cx="56.5" cy="329" rx="79.5" ry="59" fill="white" />
    <circle opacity="0.3" cx="-66" cy="57" r="105" fill="white" />
    <path opacity="0.3" d="M0 0L232.5 -34C232.5 -34 148.5 10.5 117 15C85.5 19.5 66 12.5 53 38.5C40 64.5 0 44 0 44V0Z" fill="white" />
    <path opacity="0.8" d="M234.674 41.7243C236.693 39.413 246.371 27.8723 244.527 12.7385C243.928 7.95909 242.297 3.3903 239.743 -0.664737M69.1665 45.2838C68.7838 45.8029 62.8937 53.5623 53.0642 53.1835C44.2617 52.8356 39.5444 46.2547 39 45.47" stroke="#F1F5FD" stroke-width="2" stroke-linecap="round" stroke-linejoin="round" stroke-dasharray="9 9" />
    <path opacity="0.8" d="M248.5 59C247.358 55.9215 248.095 56.6545 245 55.4817C248.095 54.3455 247.358 55.0785 248.5 52C249.642 55.0785 248.905 54.3455 252 55.4817C248.942 56.6545 249.679 55.9215 248.5 59Z" fill="#F1F5FD" />
    <path opacity="0.8" d="M42.0001 38.7198L42.0349 34.5783C42.0359 34.4238 42.1063 34.2759 42.2306 34.1675C42.3549 34.059 42.5228 33.9987 42.6974 34L46.3466 34.0243C46.5212 34.0252 46.6882 34.0875 46.8108 34.1975C46.9334 34.3075 47.0014 34.4561 47 34.6106L46.9652 38.7522C46.9638 38.8513 46.8966 38.9403 46.7938 38.9795C46.691 39.0187 46.5717 39.0007 46.4894 38.9336L44.6849 37.437C44.5769 37.3487 44.4104 37.3487 44.3024 37.437L42.4723 38.9109C42.3888 38.9787 42.2676 38.9956 42.1646 38.9539C42.0616 38.9122 41.9968 38.82 42.0001 38.7198Z" fill="#F1F5FD" />
    <path opacity="0.8" d="M229.309 16.3848H226.852L225.625 18.4237L226.852 20.4627H229.309L230.539 18.4237L229.309 16.3848Z" fill="#F1F5FD" />
  </g>
</svg>
