<svg width="33" height="33" viewBox="0 0 33 33" fill="none" xmlns="http://www.w3.org/2000/svg">
  <path d="M8.5744 20.2404C8.37817 20.2404 8.21887 20.4185 8.21887 20.638C8.21887 20.8574 8.37817 21.0356 8.5744 21.0356C8.77064 21.0356 8.92993 20.8574 8.92993 20.638C8.92993 20.4185 8.77064 20.2404 8.5744 20.2404Z" fill="#52D2BC" />
  <path d="M22.7226 21.506L19.4083 22.7802C19.423 22.689 19.4312 22.5959 19.4312 22.5015C19.4312 21.6344 18.8004 20.9289 18.0249 20.9289H15.7483C15.6879 20.9289 15.6283 20.9116 15.5757 20.8784L13.7183 19.7102C13.3511 19.4788 12.9337 19.3564 12.5114 19.3564H10.0192C9.87414 18.8989 9.4833 18.5703 9.02503 18.5703H6.91565C6.72147 18.5703 6.56409 18.7462 6.56409 18.9634V26.0397C6.56409 26.2568 6.72147 26.4328 6.91565 26.4328H9.02503C9.47287 26.4328 9.85684 26.1182 10.0093 25.6762C10.4073 25.7315 10.8677 25.8631 11.1571 26.0572L12.9956 27.2908C13.6922 27.7583 14.4897 28.0054 15.3021 28.0054C15.9459 28.0054 16.5697 27.8543 17.1562 27.5563L23.7179 24.3254C24.4447 23.9957 24.8035 23.0207 24.3881 22.1613C24.0825 21.5289 23.3669 21.2476 22.7226 21.506ZM9.3766 25.2553C9.37577 25.4712 9.21826 25.6466 9.02503 25.6466H7.26721V19.3565H9.02503C9.21881 19.3565 9.3766 19.5328 9.3766 19.7497V25.2553ZM23.4508 23.5983C23.4471 23.5998 23.4434 23.6016 23.4397 23.6033C23.4397 23.6033 16.8682 26.839 16.867 26.8396C16.3719 27.0915 15.8454 27.2191 15.3021 27.2191C14.6171 27.2191 13.9447 27.0109 13.3575 26.6167L11.5188 25.383C11.1252 25.119 10.5616 24.9581 10.0797 24.8936V20.1428H12.5114C12.813 20.1428 13.111 20.23 13.3734 20.3954L15.2308 21.5636C15.3882 21.6628 15.5673 21.7153 15.7483 21.7153H18.0249C18.4126 21.7153 18.7281 22.0679 18.7281 22.5016C18.7281 22.9336 18.4125 23.2879 18.0249 23.2879H14.4511C14.2569 23.2879 14.0995 23.4639 14.0995 23.681C14.0995 23.898 14.2569 24.074 14.4511 24.074H18.0249C18.2555 24.074 18.4825 24.01 18.684 23.8899C18.684 23.8899 22.957 22.2473 22.9586 22.2467C23.2737 22.1195 23.6299 22.2461 23.7696 22.5351C23.979 22.9683 23.8058 23.4393 23.4508 23.5983Z" fill="#52D2BC" />
  <circle cx="18.3077" cy="10.7436" r="5.6" stroke="#52D2BC" stroke-width="0.8" />
  <path d="M16.2748 10.694L18.2583 7.71878L20.2417 10.694L18.2583 13.6692L16.2748 10.694Z" stroke="#52D2BC" stroke-width="0.8" stroke-linejoin="round" />
</svg>
