<svg width="37" height="37" viewBox="0 0 37 37" fill="none" xmlns="http://www.w3.org/2000/svg">
  <circle cx="18.5" cy="18.5" r="18" fill="white" stroke="#DCFFF9" />
  <path d="M12.1924 22.1553C12.0222 22.1553 11.884 22.3098 11.884 22.5002C11.884 22.6905 12.0222 22.845 12.1924 22.845C12.3626 22.845 12.5008 22.6905 12.5008 22.5002C12.5008 22.3098 12.3626 22.1553 12.1924 22.1553Z" fill="#52D2BC" />
  <path d="M24.4638 23.2529L21.5892 24.358C21.6019 24.2789 21.6091 24.1982 21.6091 24.1163C21.6091 23.3642 21.062 22.7523 20.3893 22.7523H18.4147C18.3623 22.7523 18.3106 22.7373 18.265 22.7085L16.6539 21.6952C16.3354 21.4945 15.9734 21.3884 15.6072 21.3884H13.4455C13.3197 20.9916 12.9807 20.7065 12.5832 20.7065H10.7537C10.5852 20.7065 10.4487 20.8592 10.4487 21.0475V27.1852C10.4487 27.3735 10.5852 27.5261 10.7537 27.5261H12.5832C12.9717 27.5261 13.3047 27.2532 13.4369 26.8699C13.7821 26.9178 14.1815 27.032 14.4325 27.2003L16.0272 28.2703C16.6313 28.6758 17.323 28.8901 18.0277 28.8901C18.5861 28.8901 19.1271 28.759 19.6358 28.5006L25.3272 25.6983C25.9575 25.4123 26.2688 24.5666 25.9085 23.8212C25.6434 23.2727 25.0227 23.0287 24.4638 23.2529ZM12.8882 26.5048C12.8875 26.6921 12.7508 26.8442 12.5832 26.8442H11.0586V21.3885H12.5832C12.7513 21.3885 12.8882 21.5414 12.8882 21.7295V26.5048ZM25.0955 25.0676C25.0923 25.0689 25.0891 25.0705 25.0859 25.072C25.0859 25.072 19.386 27.8785 19.385 27.879C18.9556 28.0974 18.4989 28.2081 18.0277 28.2081C17.4335 28.2081 16.8504 28.0275 16.341 27.6856L14.7462 26.6156C14.4048 26.3866 13.916 26.247 13.498 26.1911V22.0705H15.6072C15.8687 22.0705 16.1272 22.1461 16.3548 22.2896L17.9659 23.3028C18.1024 23.3889 18.2577 23.4344 18.4147 23.4344H20.3893C20.7256 23.4344 20.9992 23.7402 20.9992 24.1164C20.9992 24.4911 20.7255 24.7984 20.3893 24.7984H17.2895C17.1211 24.7984 16.9846 24.951 16.9846 25.1394C16.9846 25.3276 17.1211 25.4802 17.2895 25.4802H20.3893C20.5893 25.4802 20.7862 25.4247 20.961 25.3205C20.961 25.3205 24.6672 23.8958 24.6686 23.8953C24.9419 23.785 25.2508 23.8948 25.372 24.1454C25.5536 24.5212 25.4034 24.9297 25.0955 25.0676Z" fill="#52D2BC" />
  <circle cx="20.6345" cy="13.9182" r="4.80412" stroke="#52D2BC" stroke-width="0.8" />
  <path d="M18.8712 13.8752L20.5916 11.2947L22.312 13.8752L20.5916 16.4558L18.8712 13.8752Z" stroke="#52D2BC" stroke-width="0.8" stroke-linejoin="round" />
</svg>
