<svg width="37" height="37" viewBox="0 0 37 37" fill="none" xmlns="http://www.w3.org/2000/svg">
  <path d="M37 18.5C37 28.7173 28.7173 37 18.5 37C8.28273 37 0 28.7173 0 18.5C0 8.28273 8.28273 0 18.5 0C28.7173 0 37 8.28273 37 18.5Z" fill="white" />
  <path fill-rule="evenodd" clip-rule="evenodd" d="M18.5 36C28.165 36 36 28.165 36 18.5C36 8.83502 28.165 1 18.5 1C8.83502 1 1 8.83502 1 18.5C1 28.165 8.83502 36 18.5 36ZM18.5 37C28.7173 37 37 28.7173 37 18.5C37 8.28273 28.7173 0 18.5 0C8.28273 0 0 8.28273 0 18.5C0 28.7173 8.28273 37 18.5 37Z" fill="#DCFFF9" />
  <path d="M12.1924 22.1553C12.0222 22.1553 11.884 22.3098 11.884 22.5002C11.884 22.6905 12.0222 22.845 12.1924 22.845C12.3626 22.845 12.5008 22.6905 12.5008 22.5002C12.5008 22.3098 12.3626 22.1553 12.1924 22.1553Z" fill="#52D2BC" />
  <path d="M24.4638 23.2529L21.5892 24.358C21.6019 24.2789 21.6091 24.1982 21.6091 24.1163C21.6091 23.3643 21.062 22.7523 20.3893 22.7523H18.4147C18.3623 22.7523 18.3106 22.7373 18.265 22.7085L16.6539 21.6953C16.3354 21.4945 15.9734 21.3884 15.6072 21.3884H13.4455C13.3197 20.9916 12.9807 20.7065 12.5832 20.7065H10.7537C10.5852 20.7065 10.4487 20.8592 10.4487 21.0475V27.1852C10.4487 27.3735 10.5852 27.5262 10.7537 27.5262H12.5832C12.9717 27.5262 13.3047 27.2533 13.4369 26.8699C13.7821 26.9179 14.1815 27.032 14.4325 27.2004L16.0272 28.2704C16.6313 28.6758 17.323 28.8901 18.0277 28.8901C18.5861 28.8901 19.1271 28.7591 19.6358 28.5007L25.3272 25.6983C25.9575 25.4123 26.2688 24.5666 25.9085 23.8213C25.6434 23.2727 25.0227 23.0287 24.4638 23.2529ZM12.8882 26.5048C12.8875 26.6921 12.7508 26.8442 12.5832 26.8442H11.0586V21.3885H12.5832C12.7513 21.3885 12.8882 21.5414 12.8882 21.7295V26.5048ZM25.0955 25.0676C25.0923 25.0689 25.0891 25.0705 25.0859 25.072C25.0859 25.072 19.386 27.8785 19.385 27.879C18.9556 28.0975 18.4989 28.2082 18.0277 28.2082C17.4335 28.2082 16.8504 28.0275 16.341 27.6856L14.7462 26.6156C14.4048 26.3867 13.916 26.2471 13.498 26.1911V22.0705H15.6072C15.8687 22.0705 16.1272 22.1462 16.3548 22.2896L17.9659 23.3029C18.1024 23.3889 18.2577 23.4345 18.4147 23.4345H20.3893C20.7256 23.4345 20.9992 23.7403 20.9992 24.1164C20.9992 24.4911 20.7255 24.7984 20.3893 24.7984H17.2895C17.1211 24.7984 16.9846 24.951 16.9846 25.1394C16.9846 25.3276 17.1211 25.4802 17.2895 25.4802H20.3893C20.5893 25.4802 20.7862 25.4247 20.961 25.3205C20.961 25.3205 24.6672 23.8959 24.6686 23.8953C24.9419 23.785 25.2508 23.8948 25.372 24.1455C25.5536 24.5212 25.4034 24.9297 25.0955 25.0676Z" fill="#52D2BC" />
  <path fill-rule="evenodd" clip-rule="evenodd" d="M20.6345 18.3224C23.0669 18.3224 25.0387 16.3506 25.0387 13.9182C25.0387 11.4859 23.0669 9.51411 20.6345 9.51411C18.2022 9.51411 16.2304 11.4859 16.2304 13.9182C16.2304 16.3506 18.2022 18.3224 20.6345 18.3224ZM20.6345 19.1224C23.5087 19.1224 25.8387 16.7924 25.8387 13.9182C25.8387 11.0441 23.5087 8.71411 20.6345 8.71411C17.7604 8.71411 15.4304 11.0441 15.4304 13.9182C15.4304 16.7924 17.7604 19.1224 20.6345 19.1224Z" fill="#52D2BC" />
  <path fill-rule="evenodd" clip-rule="evenodd" d="M20.5916 10.8947C20.7253 10.8947 20.8502 10.9616 20.9244 11.0728L22.6448 13.6534C22.7343 13.7878 22.7343 13.9628 22.6448 14.0972L20.9244 16.6777C20.8502 16.789 20.7253 16.8558 20.5916 16.8558C20.4578 16.8558 20.3329 16.789 20.2587 16.6777L18.5384 14.0972C18.4488 13.9628 18.4488 13.7878 18.5384 13.6534L20.2587 11.0728C20.3329 10.9616 20.4578 10.8947 20.5916 10.8947ZM19.3519 13.8753L20.5916 15.7347L21.8312 13.8753L20.5916 12.0158L19.3519 13.8753Z" fill="#52D2BC" />
</svg>
  