<svg width="195" height="155" viewBox="0 0 195 155" fill="none" xmlns="http://www.w3.org/2000/svg">
  <path d="M33.755 140.953C33.755 140.953 18.395 120.859 21.3864 87.7666C24.4745 53.5058 40.7213 35.2719 61.9189 42.1914C79.2462 47.8486 90.4053 44.2205 108.321 28.0532C137.703 1.54406 175.574 30.2413 165.665 81.6045C160.867 106.459 180.993 118.745 164.149 141L33.755 140.953Z" fill="#F1F5FD" />
  <path d="M159.461 137.596C154.175 137.775 147.755 128.657 149.24 121.54C150.4 115.902 155.509 116.5 158.571 109.93C162.331 101.853 156.705 96.4569 159.759 88.4206C162.616 80.9275 169.981 75.2367 172.747 76.5878C175.63 77.9954 171.275 85.9906 173.688 99.6975C175.377 109.307 178.262 109.631 177.453 115.497C176.463 122.742 171.299 127.784 164.684 134.25C162.016 136.871 160.847 137.549 159.461 137.596Z" fill="#91A0D8" fill-opacity="0.27" />
  <path d="M150.038 86.7942C146.89 90.1652 145.004 94.5113 144.717 99.089C144.335 107.098 149.661 108.486 151.518 117.582C153.724 128.394 148.083 135.714 150.175 136.817C152.502 138.048 162.064 130.363 162.323 121.462C162.536 114.218 156.376 112.98 154.739 104.049C152.685 92.8501 160.386 83.9193 157.904 82.2939C156.217 81.1956 151.937 84.7925 150.038 86.7942Z" fill="#9289FF" fill-opacity="0.4" />
  <path d="M160.296 132.235C160.182 132.319 160.032 132.32 159.92 132.235C159.783 132.127 159.756 131.93 159.865 131.793C167.271 122.253 170.109 114.092 168.298 107.533C167.911 106.235 167.411 104.977 166.797 103.77C165.923 101.919 165.022 99.9974 164.768 97.1293C164.312 91.9456 166.217 86.5615 170.434 81.1044C170.543 80.9669 170.735 80.9434 170.872 81.0512C171.009 81.1591 171.032 81.3506 170.923 81.4881C166.805 86.8063 164.941 92.0521 165.376 97.0686C165.618 99.8289 166.459 101.611 167.351 103.498C167.974 104.741 168.488 106.03 168.879 107.367C170.75 114.123 167.873 122.471 160.339 132.179L160.296 132.235Z" fill="white" />
  <path d="M164.951 121.708C158.047 131.788 153.971 137.758 155.645 139.732C157.926 142.377 171.436 138.417 175.598 129.597C178.126 124.242 175.526 120.656 178.752 110.256C180.378 105.017 182.109 102.497 181.528 102.114C180.315 101.31 171.568 112.037 164.951 121.708Z" fill="#9289FF" fill-opacity="0.4" />
  <path d="M165.887 135.028C163.886 136.455 161.711 137.61 159.41 138.465C159.246 138.527 159.07 138.447 159.004 138.287C158.973 138.21 158.977 138.124 159.013 138.047C159.049 137.971 159.112 137.908 159.193 137.882C164.819 135.707 168.584 132.711 170.363 128.941C171.276 126.985 171.507 125.252 171.761 123.228C172.021 120.617 172.598 118.041 173.478 115.56C174.551 112.597 176.042 109.795 177.898 107.242C177.948 107.173 178.017 107.13 178.101 107.119C178.185 107.108 178.264 107.125 178.334 107.174C178.472 107.273 178.504 107.466 178.4 107.608C176.579 110.119 175.121 112.863 174.062 115.775C173.198 118.211 172.637 120.741 172.38 123.309C172.119 125.38 171.892 127.176 170.937 129.213C169.758 131.537 168.028 133.541 165.887 135.028ZM152.293 134.015C152.238 134.055 152.161 134.053 152.105 134.011C152.036 133.961 152.023 133.863 152.078 133.789C154.997 130.036 156.497 126.204 156.534 122.383C156.571 118.562 155.199 116.11 153.761 113.407C152.803 111.727 152.002 109.965 151.37 108.138C149.365 101.838 150.72 94.2344 155.364 85.5368C155.41 85.4619 155.5 85.4373 155.577 85.4732C155.657 85.5145 155.681 85.6049 155.64 85.6853C151.033 94.2971 149.695 101.822 151.67 108.044C152.289 109.855 153.078 111.601 154.031 113.26C155.492 115.996 156.88 118.586 156.837 122.387C156.794 126.187 155.284 130.177 152.332 133.978L152.293 134.015Z" fill="white" />
  <path d="M152.254 93.1066C152.242 93.124 152.22 93.1399 152.199 93.1464C152.155 93.154 152.113 93.1428 152.078 93.1182C152.044 93.0936 152.022 93.0516 152.018 93.0125L151.35 89.1986C151.335 89.1096 151.391 89.0267 151.481 89.0115C151.568 89.0058 151.651 89.0619 151.666 89.1509L152.329 92.9688C152.331 93.0173 152.303 93.0708 152.254 93.1066ZM151.284 96.943C151.224 96.9868 151.138 96.9832 151.085 96.922C151.03 96.8702 151.03 96.7787 151.073 96.7226L153.341 93.886C153.366 93.8513 153.402 93.8328 153.442 93.8292C153.481 93.8256 153.522 93.8368 153.552 93.8654C153.615 93.9186 153.629 94.0171 153.575 94.0811L151.307 96.9177L151.284 96.943ZM150.701 99.5569L150.662 99.5848C150.622 99.5978 150.573 99.6 150.537 99.5848C150.497 99.5642 150.468 99.5356 150.455 99.495L148.288 93.6625C148.275 93.622 148.273 93.5735 148.294 93.5333C148.315 93.4932 148.349 93.4599 148.386 93.4414C148.473 93.4114 148.568 93.4501 148.599 93.5272L150.77 99.3652C150.787 99.4354 150.761 99.5132 150.701 99.5569ZM151.044 103.051C150.995 103.087 150.931 103.091 150.878 103.064C150.841 103.049 150.814 103.011 150.805 102.976C150.792 102.935 150.798 102.897 150.819 102.857L152.568 99.7672C152.613 99.6923 152.704 99.6677 152.776 99.6981C152.853 99.7339 152.877 99.8244 152.835 99.9048L151.081 102.999L151.044 103.051ZM151.207 106.368C151.153 106.408 151.068 106.394 151.019 106.339L146.891 101.93C146.834 101.863 146.834 101.771 146.886 101.717C146.909 101.692 146.946 101.673 146.983 101.679C147.021 101.685 147.057 101.7 147.086 101.728L151.213 106.147C151.243 106.176 151.256 106.216 151.259 106.255C151.262 106.294 151.247 106.33 151.218 106.36L151.207 106.368ZM152.007 109.537C151.969 109.565 151.915 109.571 151.864 109.558C151.822 109.547 151.793 109.518 151.775 109.482C151.756 109.445 151.753 109.406 151.764 109.364L153.073 105.672C153.106 105.59 153.194 105.551 153.277 105.573C153.359 105.605 153.403 105.689 153.371 105.771L152.058 109.458C152.052 109.495 152.034 109.517 152.007 109.537ZM153.884 113.484C153.835 113.519 153.762 113.523 153.71 113.486L150.856 111.625C150.797 111.601 150.763 111.543 150.759 111.48C150.754 111.416 150.787 111.359 150.844 111.334C150.901 111.309 150.967 111.319 151.014 111.36L153.868 113.221C153.903 113.246 153.936 113.28 153.939 113.319C153.952 113.359 153.945 113.406 153.925 113.437C153.908 113.458 153.895 113.476 153.884 113.484ZM154.753 115.029C154.715 115.057 154.665 115.069 154.61 115.051C154.532 115.024 154.493 114.936 154.525 114.855L156.053 110.969C156.092 110.908 156.169 110.876 156.237 110.901C156.306 110.926 156.342 110.999 156.331 111.075L154.803 114.96C154.793 114.992 154.779 115.019 154.753 115.029ZM156.423 119.128C156.363 119.171 156.277 119.168 156.226 119.121L153.634 116.737C153.582 116.7 153.557 116.643 153.567 116.577C153.582 116.517 153.628 116.466 153.684 116.451C153.749 116.436 153.808 116.46 153.844 116.509L156.438 118.884C156.496 118.941 156.5 119.038 156.447 119.102L156.423 119.128ZM156.786 121.675C156.737 121.711 156.679 121.712 156.62 121.688C156.544 121.652 156.516 121.556 156.552 121.48L158.426 117.691C158.441 117.655 158.475 117.622 158.511 117.613C158.551 117.6 158.594 117.602 158.629 117.626C158.705 117.662 158.739 117.754 158.703 117.83L156.84 121.611C156.831 121.634 156.808 121.659 156.786 121.675Z" fill="white" />
  <path opacity="0.62" d="M51.5422 138.988C47.9751 141.653 39.0965 138.463 36.6473 132.885C34.6964 128.455 38.527 126.407 37.4376 120.418C36.0991 113.061 29.5701 112.062 27.7759 105.08C26.0956 98.5595 28.4167 91.0962 30.9941 90.6922C33.6712 90.2669 34.5612 97.8579 42.9128 106.108C48.7583 111.892 50.9085 110.722 53.2082 115.131C56.0562 120.581 54.9455 126.535 53.5286 134.161C52.9519 137.258 52.4678 138.293 51.5422 138.988Z" fill="#FAC9CF" />
  <path opacity="0.62" d="M51.3751 134.785C51.9732 122.02 48.5556 116.513 45.2804 113.834C42.7742 111.792 40.325 111.388 37.7974 108.419C34.2161 104.201 33.796 98.7155 33.974 94.8527" stroke="white" stroke-width="0.25" stroke-linecap="round" stroke-linejoin="round" />
  <path opacity="0.62" d="M25.9318 120.616C14.4331 114.351 7.57662 110.637 5.64 112.65C3.02698 115.372 8.63037 129.349 18.5271 132.822C24.5292 134.934 28.1319 131.765 39.6163 134.09C45.4048 135.26 48.2884 136.833 48.6372 136.174C49.3848 134.778 36.9748 126.627 25.9318 120.616Z" fill="#FAC9CF" />
  <path opacity="0.62" d="M10.4142 116.328C14.1023 123.7 18.2603 126.336 21.3006 127.407C25.8075 128.994 29.0755 127.562 35.9676 129.285C39.2143 130.1 42.3328 131.369 45.2235 133.048" stroke="white" stroke-width="0.25" stroke-linecap="round" stroke-linejoin="round" />
  <path opacity="0.62" d="M10.8661 105.846C10.9302 106.76 11.3645 111.969 15.4798 116.087C20.2573 120.865 24.1803 118.37 30.9158 122.395C38.9257 127.166 40.25 134.785 42.1368 134.126C44.2372 133.396 44.9278 123.161 39.5309 117.959C35.1308 113.72 30.8304 116.803 24.3227 112.749C16.1633 107.66 15.0099 97.872 12.5749 98.4745C10.923 98.8785 10.7237 103.542 10.8661 105.846Z" fill="#E2A3AE" />
  <path opacity="0.62" d="M38.7729 121.446L37.5055 118.1L38.7729 121.446ZM43.8636 131.213C43.4008 128.562 42.3257 124.763 39.257 121.914C35.5333 118.469 31.6316 118.944 27.3525 116.966C23.6928 115.272 19.0293 111.445 15.5833 101.742L43.8636 131.213ZM18.417 108L15.7613 106.264L18.417 108ZM20.1614 110.864L19.6986 107.731L20.1614 110.864ZM21.2721 112.536L16.4946 110.672L21.2721 112.536ZM23.7783 114.486L22.81 111.651L23.7783 114.486ZM25.8359 116.144L20.7096 116.25L25.8359 116.144ZM28.4134 117.512L26.8541 114.606L28.4134 117.512ZM31.8665 118.511L29.161 119.256L31.8665 118.511ZM33.4828 118.937L31.8452 115.669L33.4828 118.937ZM36.7864 120.149L33.7818 120.39L36.7864 120.149Z" stroke="white" stroke-width="0.25" stroke-linecap="round" stroke-linejoin="round" />
  <path d="M10.0697 140.973C9.95874 140.973 9.87341 139.895 9.87341 138.484V137.737C9.87341 136.409 9.95874 135.247 10.0697 135.247H184.93C185.033 135.247 185.127 136.326 185.127 137.737V138.484C185.127 139.812 185.041 140.973 184.93 140.973" fill="#E6EDFE" />
  <rect x="61.7089" y="56.5152" width="30.6781" height="30.8419" rx="2" fill="#D5DCF3" />
  <rect x="102.613" y="56.5152" width="30.6781" height="30.8419" rx="2" fill="#D5DCF3" />
  <rect x="61.7089" y="97.4745" width="30.6781" height="30.8419" rx="2" fill="#D5DCF3" />
  <rect x="102.613" y="97.4745" width="30.6781" height="30.8419" rx="2" fill="#D5DCF3" />
  <path fill-rule="evenodd" clip-rule="evenodd" d="M84.5411 82.0085C84.5411 69.6253 94.6254 59.5867 107.065 59.5867C119.504 59.5867 129.589 69.6253 129.589 82.0085C129.589 94.3917 119.504 104.43 107.065 104.43C94.6254 104.43 84.5411 94.3917 84.5411 82.0085ZM107.065 64.5011C97.3518 64.5011 89.4778 72.3394 89.4778 82.0085C89.4778 91.6776 97.3518 99.5159 107.065 99.5159C116.778 99.5159 124.652 91.6776 124.652 82.0085C124.652 72.3394 116.778 64.5011 107.065 64.5011Z" fill="#B1AFFF" />
  <path fill-rule="evenodd" clip-rule="evenodd" d="M119.492 94.3793C120.456 93.4197 122.019 93.4197 122.983 94.3793L136.888 108.221C137.852 109.181 137.852 110.737 136.888 111.696C135.924 112.656 134.361 112.656 133.397 111.696L119.492 97.8543C118.528 96.8947 118.528 95.3389 119.492 94.3793Z" fill="#B1AFFF" />
</svg>
