<svg width="37" height="37" viewBox="0 0 37 37" fill="none" xmlns="http://www.w3.org/2000/svg">
  <path d="M37 18.5C37 28.7173 28.7173 37 18.5 37C8.28273 37 0 28.7173 0 18.5C0 8.28273 8.28273 0 18.5 0C28.7173 0 37 8.28273 37 18.5Z" fill="white" />
  <path fill-rule="evenodd" clip-rule="evenodd" d="M18.5 36C28.165 36 36 28.165 36 18.5C36 8.83502 28.165 1 18.5 1C8.83502 1 1 8.83502 1 18.5C1 28.165 8.83502 36 18.5 36ZM18.5 37C28.7173 37 37 28.7173 37 18.5C37 8.28273 28.7173 0 18.5 0C8.28273 0 0 8.28273 0 18.5C0 28.7173 8.28273 37 18.5 37Z" fill="#E7F5FF" />
  <path d="M16.2732 11.1644C16.2732 10.0598 17.1686 9.16437 18.2732 9.16437H25.0649C26.1694 9.16437 27.0649 10.0598 27.0649 11.1644V17.956C27.0649 19.0606 26.1694 19.956 25.0649 19.956H18.2732C17.1686 19.956 16.2732 19.0606 16.2732 17.956V11.1644Z" fill="white" />
  <path fill-rule="evenodd" clip-rule="evenodd" d="M25.0649 9.56437H18.2732C17.3895 9.56437 16.6732 10.2807 16.6732 11.1644V17.956C16.6732 18.8397 17.3895 19.556 18.2732 19.556H25.0649C25.9485 19.556 26.6649 18.8397 26.6649 17.956V11.1644C26.6649 10.2807 25.9485 9.56437 25.0649 9.56437ZM18.2732 9.16437C17.1686 9.16437 16.2732 10.0598 16.2732 11.1644V17.956C16.2732 19.0606 17.1686 19.956 18.2732 19.956H25.0649C26.1694 19.956 27.0649 19.0606 27.0649 17.956V11.1644C27.0649 10.0598 26.1694 9.16437 25.0649 9.16437H18.2732Z" fill="#3FADF6" />
  <path d="M25.2665 14.5602C25.2665 16.5469 23.6559 18.1575 21.6692 18.1575C19.6826 18.1575 18.072 16.5469 18.072 14.5602C18.072 12.5735 19.6826 10.963 21.6692 10.963C23.6559 10.963 25.2665 12.5735 25.2665 14.5602Z" fill="white" />
  <path fill-rule="evenodd" clip-rule="evenodd" d="M25.2361 15.0301L24.8394 14.9783C24.8572 14.8417 24.8665 14.7021 24.8665 14.5602C24.8665 14.4183 24.8572 14.2788 24.8394 14.1421L25.2361 14.0904C25.2561 14.2442 25.2665 14.401 25.2665 14.5602C25.2665 14.7195 25.2561 14.8763 25.2361 15.0301ZM24.9935 13.1833L24.624 13.3365C24.5163 13.0768 24.3753 12.8342 24.2061 12.614L24.5233 12.3703C24.7135 12.6178 24.8722 12.8908 24.9935 13.1833ZM23.8592 11.7062L23.6154 12.0234C23.3953 11.8542 23.1527 11.7132 22.893 11.6055L23.0462 11.236C23.3387 11.3572 23.6116 11.516 23.8592 11.7062ZM22.1391 10.9934L22.0873 11.3901C21.9507 11.3722 21.8111 11.363 21.6692 11.363C21.5274 11.363 21.3878 11.3722 21.2512 11.3901L21.1994 10.9934C21.3532 10.9734 21.51 10.963 21.6692 10.963C21.8285 10.963 21.9853 10.9734 22.1391 10.9934ZM20.2923 11.236L20.4455 11.6055C20.1858 11.7132 19.9432 11.8542 19.723 12.0234L19.4793 11.7062C19.7268 11.516 19.9998 11.3572 20.2923 11.236ZM18.8152 12.3703L19.1324 12.614C18.9632 12.8342 18.8222 13.0768 18.7145 13.3365L18.345 13.1833C18.4663 12.8908 18.625 12.6178 18.8152 12.3703ZM18.1024 14.0904C18.0824 14.2442 18.072 14.401 18.072 14.5602C18.072 14.7195 18.0824 14.8763 18.1024 15.0301L18.4991 14.9783C18.4812 14.8417 18.472 14.7021 18.472 14.5602C18.472 14.4183 18.4812 14.2788 18.4991 14.1421L18.1024 14.0904ZM18.345 15.9372L18.7145 15.784C18.8222 16.0437 18.9632 16.2863 19.1324 16.5064L18.8152 16.7502C18.625 16.5026 18.4663 16.2297 18.345 15.9372ZM19.4793 17.4143L19.723 17.0971C19.9432 17.2663 20.1858 17.4073 20.4455 17.515L20.2923 17.8845C19.9998 17.7632 19.7268 17.6045 19.4793 17.4143ZM21.1994 18.1271C21.3532 18.1471 21.51 18.1575 21.6692 18.1575C21.8285 18.1575 21.9853 18.1471 22.1391 18.1271L22.0873 17.7304C21.9507 17.7482 21.8111 17.7575 21.6692 17.7575C21.5273 17.7575 21.3878 17.7482 21.2512 17.7304L21.1994 18.1271ZM23.0462 17.8845L22.893 17.515C23.1527 17.4073 23.3953 17.2663 23.6154 17.0971L23.8592 17.4143C23.6116 17.6045 23.3387 17.7632 23.0462 17.8845ZM24.5233 16.7502L24.2061 16.5064C24.3753 16.2863 24.5163 16.0437 24.624 15.784L24.9935 15.9372C24.8722 16.2297 24.7135 16.5026 24.5233 16.7502Z" fill="#3FADF6" />
  <path d="M9.33569 17.3311C9.33569 16.2265 10.2311 15.3311 11.3357 15.3311H19.669C20.7736 15.3311 21.669 16.2265 21.669 17.3311V25.6644C21.669 26.769 20.7736 27.6644 19.669 27.6644H11.3357C10.2311 27.6644 9.33569 26.769 9.33569 25.6644V17.3311Z" fill="white" />
  <path fill-rule="evenodd" clip-rule="evenodd" d="M19.669 15.9311H11.3357C10.5625 15.9311 9.93569 16.5579 9.93569 17.3311V25.6644C9.93569 26.4376 10.5625 27.0644 11.3357 27.0644H19.669C20.4422 27.0644 21.069 26.4376 21.069 25.6644V17.3311C21.069 16.5579 20.4422 15.9311 19.669 15.9311ZM11.3357 15.3311C10.2311 15.3311 9.33569 16.2265 9.33569 17.3311V25.6644C9.33569 26.769 10.2311 27.6644 11.3357 27.6644H19.669C20.7736 27.6644 21.669 26.769 21.669 25.6644V17.3311C21.669 16.2265 20.7736 15.3311 19.669 15.3311H11.3357Z" fill="#3FADF6" />
  <path d="M19.6133 21.4977C19.6133 23.7682 17.7727 25.6088 15.5022 25.6088C13.2317 25.6088 11.3911 23.7682 11.3911 21.4977C11.3911 19.2272 13.2317 17.3866 15.5022 17.3866C17.7727 17.3866 19.6133 19.2272 19.6133 21.4977Z" fill="white" />
  <path fill-rule="evenodd" clip-rule="evenodd" d="M15.5022 25.0088C17.4414 25.0088 19.0133 23.4368 19.0133 21.4977C19.0133 19.5586 17.4414 17.9866 15.5022 17.9866C13.5631 17.9866 11.9911 19.5586 11.9911 21.4977C11.9911 23.4368 13.5631 25.0088 15.5022 25.0088ZM15.5022 25.6088C17.7727 25.6088 19.6133 23.7682 19.6133 21.4977C19.6133 19.2272 17.7727 17.3866 15.5022 17.3866C13.2317 17.3866 11.3911 19.2272 11.3911 21.4977C11.3911 23.7682 13.2317 25.6088 15.5022 25.6088Z" fill="#3FADF6" />
  <path d="M14.1091 21.4637L15.4682 19.4252L16.8272 21.4637L15.4682 23.5023L14.1091 21.4637Z" fill="white" />
  <path fill-rule="evenodd" clip-rule="evenodd" d="M15.4681 19.1252C15.5684 19.1252 15.6621 19.1753 15.7177 19.2588L17.0768 21.2973C17.144 21.3981 17.144 21.5294 17.0768 21.6302L15.7177 23.6687C15.6621 23.7522 15.5684 23.8023 15.4681 23.8023C15.3678 23.8023 15.2742 23.7522 15.2185 23.6687L13.8595 21.6302C13.7923 21.5294 13.7923 21.3981 13.8595 21.2973L15.2185 19.2588C15.2742 19.1753 15.3678 19.1252 15.4681 19.1252ZM14.4696 21.4638L15.4681 22.9615L16.4666 21.4638L15.4681 19.966L14.4696 21.4638Z" fill="#3FADF6" />
</svg>
  