<svg width="124" height="65" viewBox="0 0 124 65" fill="none" xmlns="http://www.w3.org/2000/svg">
  <path d="M120.896 43.2208C119.582 34.1715 111.18 27.9014 102.13 29.2162C93.0811 30.531 86.8111 38.9328 88.1259 47.9821C89.4407 57.0314 97.8425 63.3014 106.892 61.9866C115.941 60.6718 122.211 52.2701 120.896 43.2208Z" fill="#F1F5FD" />
  <path d="M98.9781 35.9887C98.3804 31.8754 94.5614 29.0253 90.4481 29.623C86.3348 30.2206 83.4848 34.0396 84.0824 38.1529C84.6801 42.2662 88.4991 45.1163 92.6124 44.5186C96.7257 43.921 99.5757 40.102 98.9781 35.9887Z" fill="#DBF8F3" />
  <path opacity="0.32" d="M47.5707 20.0161V10.0806C47.5722 9.16904 47.0827 8.32634 46.2874 7.8714L37.6236 2.9025C36.8309 2.44795 35.8544 2.44795 35.0617 2.9025L26.4002 7.8714C25.605 8.32634 25.1155 9.16904 25.117 10.0806V20.0276C25.1146 20.94 25.6042 21.7838 26.4002 22.2391L35.064 27.2057C35.8567 27.6603 36.8333 27.6603 37.6259 27.2057L46.2897 22.2391C47.0884 21.7811 47.5777 20.9321 47.5707 20.0161Z" fill="#6534FF" />
  <path d="M48.093 18.9845V9.05091C48.0945 8.13912 47.605 7.29618 46.81 6.84112L38.1479 1.86158C37.3554 1.4069 36.379 1.4069 35.5865 1.86158L26.9245 6.83186C26.1285 7.28634 25.6381 8.12938 25.6392 9.04165V18.9845C25.6381 19.8968 26.1285 20.7399 26.9245 21.1943L35.5865 26.1646C36.379 26.6193 37.3554 26.6193 38.1479 26.1646L46.81 21.1943C47.605 20.7393 48.0945 19.8963 48.093 18.9845Z" fill="#FCCDD3" />
  <path d="M48.093 8.56629C48.0945 7.64958 47.6052 6.8021 46.8104 6.34458L38.151 1.34284C37.3588 0.885718 36.3827 0.885718 35.5904 1.34284L26.9241 6.34458C26.1284 6.80151 25.6381 7.6491 25.6392 8.56629V18.5581C25.6381 19.4753 26.1284 20.3229 26.9241 20.7798" stroke="#6535FF" stroke-linecap="round" stroke-linejoin="round" />
  <path d="M43.9105 15.8243L44.9601 14.0131L43.9105 12.2013V10.1088L42.0926 9.06258L41.0429 7.25139H38.946L37.1287 6.20514L35.3108 7.25139H33.2116L32.162 9.06258L30.344 10.1088V12.2013L29.2944 14.0131L30.344 15.8243V17.9168L32.162 18.963L33.2116 20.7742H35.3108L37.1287 21.8205L38.946 20.7742H41.0429L42.0926 18.963L43.9105 17.9168V15.8243Z" fill="white" />
  <path d="M43.3935 9.58875L41.5756 8.54423L40.5254 6.73188H38.4256L36.6076 5.68506L34.7897 6.73188H32.6899L31.6403 8.54423L29.8224 9.58875V11.6818L28.7722 13.4942L29.8224 15.3071V17.4002L31.6403 18.447L32.6899 20.2593H34.7897" stroke="#6535FF" stroke-linecap="round" stroke-linejoin="round" />
  <path d="M36.8663 16.615C38.4525 16.615 39.7384 15.3334 39.7384 13.7524C39.7384 12.1714 38.4525 10.8898 36.8663 10.8898C35.28 10.8898 33.9941 12.1714 33.9941 13.7524C33.9941 15.3334 35.28 16.615 36.8663 16.615Z" fill="#62BCF9" />
  <path d="M35.5554 16.6156C34.3372 15.5809 34.1653 13.7387 35.1702 12.4885C36.1752 11.2383 37.981 11.0478 39.2157 12.0618" stroke="#6535FF" stroke-linecap="round" stroke-linejoin="round" />
  <path opacity="0.32" d="M46.8151 6.82832L38.1874 1.8426C37.8914 1.67194 37.5641 1.56243 37.2249 1.52057C37.0424 1.90605 36.9099 2.31324 36.8306 2.73225C36.5685 4.15243 36.8492 5.61664 37.2504 7.00439C37.6516 8.39215 38.1781 9.74978 38.41 11.1746C38.7326 13.1289 38.5046 15.1343 37.7514 16.9666C36.7703 19.3482 34.9334 21.3499 34.2469 23.8335C34.1219 24.2885 34.0373 24.7537 33.9941 25.2236L35.6176 26.1642C36.407 26.6194 37.3795 26.6194 38.1688 26.1642L46.7965 21.1877C47.592 20.7389 48.0866 19.8994 48.093 18.9868V9.04085C48.0945 8.12793 47.607 7.28395 46.8151 6.82832Z" fill="#6534FF" />
  <path d="M38.6936 24.9442L46.5263 20.2596" stroke="#6535FF" stroke-linecap="round" stroke-linejoin="round" />
  <path d="M91.5227 5.11081C82.6186 9.22245 75.2628 16.0715 70.5167 24.6696C66.662 31.8057 64.7684 39.8491 65.0288 47.9802" stroke="#E6EDFE" stroke-width="2" stroke-linecap="round" stroke-linejoin="round" stroke-dasharray="9 9" />
  <path d="M0.00012864 48.218L0.0627185 39.1075C0.068156 38.4004 0.601542 37.8315 1.25524 37.8355L7.82392 37.8854C8.13845 37.8882 8.43907 38.026 8.65962 38.2686C8.88018 38.5111 9.00259 38.8385 8.99996 39.1787L8.93737 48.2893C8.93643 48.5081 8.81536 48.7054 8.62927 48.7914C8.44317 48.8773 8.22765 48.8354 8.08087 48.6848L4.83276 45.3961C4.63839 45.2019 4.33865 45.2019 4.14427 45.3961L0.850035 48.6349C0.700194 48.7834 0.482884 48.8208 0.297794 48.7301C0.112704 48.6393 -0.00443383 48.4378 0.00012864 48.218Z" fill="#B1AFFF" />
</svg>
