<svg width="76" height="83" viewBox="0 0 76 83" fill="none" xmlns="http://www.w3.org/2000/svg">
  <path d="M7.5 83C11.6421 83 15 79.6421 15 75.5C15 71.3579 11.6421 68 7.5 68C3.35786 68 0 71.3579 0 75.5C0 79.6421 3.35786 83 7.5 83Z" fill="#FFBAC6" />
  <path d="M11.5 74C13.433 74 15 72.6569 15 71C15 69.3431 13.433 68 11.5 68C9.567 68 8 69.3431 8 71C8 72.6569 9.567 74 11.5 74Z" fill="#DBF8F3" />
  <path opacity="0.32" d="M81.7699 23.4106L80.4801 21.1763L80.3755 18.5934C80.3274 17.3127 79.6009 16.1546 78.4687 15.5539L76.6735 14.6058L75.6591 12.863C75.0205 11.7511 73.8355 11.0662 72.5532 11.0678H69.9841L67.7009 9.85833C66.5684 9.25944 65.2025 9.30993 64.1174 9.99078L62.3989 11.0678H60.3701C59.0872 11.0671 57.9015 11.7516 57.2607 12.863L55.9744 15.0868L53.7853 16.4567C52.7019 17.1363 52.0609 18.34 52.1016 19.6182L52.1783 21.6433L51.1639 23.3862C50.5225 24.497 50.5225 25.8656 51.1639 26.9764L52.4537 29.2107L52.5478 31.818C52.5959 33.0986 53.3224 34.2567 54.4546 34.8574L56.2463 35.8055L57.2607 37.5484C57.9015 38.6597 59.0872 39.3442 60.3701 39.3435H62.5104V45.1471C62.5111 45.3372 62.6215 45.5099 62.7937 45.5904C62.966 45.671 63.1693 45.6449 63.3157 45.5236L66.3588 42.986C66.542 42.8312 66.8101 42.8312 66.9932 42.986L69.8726 45.4852C70.0183 45.6106 70.2237 45.6396 70.3984 45.5594C70.5731 45.4792 70.685 45.3045 70.6848 45.1122V39.3574H72.5672C73.8494 39.3591 75.0344 38.6742 75.6731 37.5623L76.9663 35.3245L79.1555 33.9547C80.2411 33.2729 80.8803 32.0637 80.8322 30.7827L80.759 28.7576L81.7734 27.0147C82.419 25.8997 82.4177 24.5243 81.7699 23.4106Z" fill="#6534FF" />
  <path d="M71.2144 44.6935L68.4308 42.1145C68.2539 41.9548 67.995 41.9548 67.8182 42.1145L64.8798 44.7331C64.7384 44.8584 64.5422 44.8852 64.3758 44.8021C64.2095 44.719 64.1029 44.5409 64.1022 44.3446V37.5103C64.0968 37.3733 64.1434 37.2398 64.2316 37.1402C64.3197 37.0406 64.4418 36.9833 64.5701 36.9815H71.524C71.7848 36.9835 71.9953 37.21 71.9953 37.4887V44.3231C71.992 44.5188 71.8828 44.6948 71.7153 44.7743C71.5478 44.8538 71.3525 44.8223 71.2144 44.6935Z" fill="#62BCF9" />
  <path opacity="0.32" d="M68.4427 40.1284C70.8405 40.1284 72.7843 38.1911 72.7843 35.8012C72.7843 33.4113 70.8405 31.474 68.4427 31.474C66.0449 31.474 64.1011 33.4113 64.1011 35.8012C64.1011 38.1911 66.0449 40.1284 68.4427 40.1284Z" fill="#6534FF" />
  <path d="M83.3492 21.8442L82.0591 19.6154L81.9649 17.0388C81.9168 15.7613 81.1901 14.606 80.0577 14.0067L78.2655 13.0609L77.2509 11.3224C76.6099 10.2137 75.4239 9.53091 74.1407 9.53162H71.557L69.2767 8.28333C68.1427 7.686 66.7756 7.73635 65.6889 8.41546L63.9699 9.50033H61.9406C60.6584 9.50015 59.4738 10.183 58.8339 11.2911L57.5404 13.5199L55.3507 14.8899C54.2643 15.5695 53.6247 16.7761 53.6736 18.0541L53.7573 20.0744L52.7426 21.8129C52.1011 22.921 52.1011 24.2863 52.7426 25.3944L54.0327 27.6232L54.1059 30.2137C54.152 31.491 54.8776 32.6467 56.0097 33.2458L57.8054 34.1916L58.82 35.9302C59.4609 37.0372 60.6449 37.7197 61.9267 37.7209H64.5103L66.7941 38.924C67.9259 39.5239 69.2929 39.4749 70.3785 38.7953L72.0975 37.7209H74.1267C75.4096 37.7202 76.5949 37.0377 77.2369 35.9302L78.527 33.6978L80.7167 32.3313C81.8022 31.6506 82.4425 30.4451 82.3973 29.1671L82.3485 27.1573L83.3631 25.4187C83.9976 24.3099 83.9923 22.9481 83.3492 21.8442Z" fill="#BBC4EF" />
  <path d="M81.4673 16.2153C81.4194 14.9371 80.6856 13.781 79.542 13.1821L77.7329 12.2324L76.7086 10.4932C76.0601 9.38602 74.8635 8.70456 73.569 8.70527H70.9609L68.659 7.49824C67.5149 6.89964 66.1348 6.94868 65.0372 7.62695L63.302 8.70527H61.2535C59.963 8.70221 58.7684 9.37801 58.1175 10.4793L56.8116 12.7125L54.6048 14.083C53.5068 14.7603 52.8595 15.9666 52.9083 17.2449L52.9822 19.2694L51.9579 21.0086C51.3102 22.1159 51.3102 23.4807 51.9579 24.588L53.2602 26.8351L53.3553 29.4091C53.4017 30.6868 54.1343 31.843 55.277 32.4423L57.0897 33.3885L58.1139 35.1277C58.7598 36.2362 59.9557 36.9193 61.25 36.9191H63.8581L66.1635 38.1262C67.3096 38.7376 68.6999 38.6924 69.8029 38.0079" stroke="#6534FF" stroke-linecap="round" stroke-linejoin="round" />
  <path opacity="0.32" d="M82.0763 19.7414L81.9835 17.1804C81.9361 15.9106 81.22 14.7623 80.1042 14.1667L78.3383 13.2266L77.3385 11.4986C76.7069 10.3967 75.5383 9.71798 74.2739 9.71869H71.728L71.2058 9.4422C71.2872 10.5069 71.309 11.5754 71.2711 12.6425C71.2917 13.9559 71.5219 15.359 72.4152 16.3164C72.8989 16.7594 73.4108 17.1704 73.9475 17.5467C75.3952 18.7735 76.1421 20.644 75.9402 22.5373C75.7443 24.1997 74.8167 25.7308 74.7652 27.4035C74.7102 29.1661 75.6275 30.832 75.6756 32.5877C75.7055 33.6766 75.4008 34.7483 74.803 35.6567C74.3151 36.3963 73.6417 37.0115 73.1882 37.7683H74.2739C75.5379 37.7676 76.7058 37.0893 77.3385 35.9884L78.6097 33.7696L80.7673 32.4114C81.837 31.7348 82.4678 30.5366 82.4233 29.2663L82.3615 27.2549L83.3612 25.5269C83.9934 24.4255 83.9934 23.0685 83.3612 21.9671L82.0763 19.7414Z" fill="#6534FF" />
  <path opacity="0.32" d="M68.0488 35.4074C74.1518 35.4074 79.0993 34.7028 79.0993 33.8337C79.0993 32.9645 74.1518 32.26 68.0488 32.26C61.9458 32.26 56.9983 32.9645 56.9983 33.8337C56.9983 34.7028 61.9458 35.4074 68.0488 35.4074Z" fill="#6534FF" />
  <path d="M83.1729 24.1516C82.8518 24.4965 82.3943 24.6942 81.9136 24.6958H55.7584C55.2788 24.6941 54.8224 24.4963 54.5027 24.1516C54.1692 23.788 53.6842 23.5879 53.1812 23.6063C52.6782 23.6248 52.2104 23.8598 51.9065 24.2468L51.8148 24.3659C51.5005 24.7655 51.3951 25.2827 51.5291 25.7674L53.0917 31.3803C53.3646 32.3629 54.2874 33.0464 55.3422 33.0472H82.3334C83.3872 33.0461 84.3088 32.3623 84.5803 31.3803L86.1464 25.7674C86.2804 25.2827 86.175 24.7655 85.8607 24.3659L85.769 24.2468C85.4644 23.8609 84.9968 23.6267 84.4942 23.6083C83.9917 23.5898 83.507 23.7891 83.1729 24.1516Z" fill="#62BCF9" />
  <path d="M53.7168 24.1499C53.3824 23.7867 52.8965 23.5871 52.3929 23.6062C51.8893 23.6254 51.4211 23.8611 51.1174 24.2486L51.0256 24.3643C50.7114 24.7642 50.6059 25.2813 50.7395 25.766L52.3041 31.3833C52.5786 32.3647 53.5023 33.0467 54.5573 33.047H81.5821C82.6372 33.0467 83.5608 32.3647 83.8354 31.3833M55.4189 24.3918H64.8911M74.3632 33.047H68.8378M64.8911 34.6207H66.4698M71.9952 40.9154V43.2759M58.5763 14.1629L64.1017 11.0156" stroke="#6534FF" stroke-linecap="round" stroke-linejoin="round" />
  <path d="M12.0179 30.9943C14.0928 40.5799 19.1765 49.2502 26.5353 55.754C32.6612 61.0697 40.0996 64.6687 48.0924 66.1844" stroke="#E6EDFE" stroke-width="2" stroke-linecap="round" stroke-linejoin="round" stroke-dasharray="9 9" />
</svg>
