<svg width="12" height="12" viewBox="0 0 12 12" fill="none" xmlns="http://www.w3.org/2000/svg">
  <path fill-rule="evenodd" clip-rule="evenodd" d="M7.33333 1.33333C6.96514 1.33333 6.66667 1.03486 6.66667 0.666667C6.66667 0.298477 6.96514 0 7.33333 0H11.3333C11.7015 0 12 0.298477 12 0.666667V4.66667C12 5.03486 11.7015 5.33333 11.3333 5.33333C10.9651 5.33333 10.6667 5.03486 10.6667 4.66667V2.27614L5.13807 7.80474C4.87772 8.06509 4.45561 8.06509 4.19526 7.80474C3.93491 7.54439 3.93491 7.12228 4.19526 6.86193L9.72386 1.33333H7.33333ZM2 2.66667C1.63181 2.66667 1.33333 2.96514 1.33333 3.33333V10C1.33333 10.3682 1.63181 10.6667 2 10.6667H8.66667C9.03486 10.6667 9.33333 10.3682 9.33333 10V7.33333C9.33333 6.96514 9.63181 6.66667 10 6.66667C10.3682 6.66667 10.6667 6.96514 10.6667 7.33333V10C10.6667 11.1046 9.77124 12 8.66667 12H2C0.895431 12 0 11.1046 0 10V3.33333C0 2.22876 0.895431 1.33333 2 1.33333H4.66667C5.03486 1.33333 5.33333 1.63181 5.33333 2C5.33333 2.36819 5.03486 2.66667 4.66667 2.66667H2Z" fill="#8076FA"/>
</svg>
