<svg width="151" height="303" viewBox="0 0 151 303" fill="none" xmlns="http://www.w3.org/2000/svg">
  <path d="M374.531 128.292C351.339 110.258 337.133 122.442 319.198 104.934C297.348 83.591 309.162 56.4118 291.058 30.8568C267.335 -2.66396 207.911 -11.3575 179.918 17.183C150.705 46.9702 174.18 98.4981 136.99 141.966C120.037 161.786 108.782 158.538 100.263 177.866C85.5952 211.117 97.8996 268.616 124.59 283.273C157.69 301.469 183.827 237.737 239.064 243.957C290.211 249.726 300.558 308.04 340.665 302.648C377.459 297.702 415.45 242.38 409.351 191.539C406.209 165.324 391.479 141.467 374.531 128.292Z" fill="#F1F5FD" />
  <path opacity="0.62" d="M169.186 245.441C156.221 255.175 123.937 243.531 115.037 223.162C107.957 206.973 121.875 199.499 117.917 177.629C113.058 150.754 89.3233 147.117 82.7947 121.611C76.6919 97.7886 85.124 70.5469 94.4828 69.0622C104.226 67.5108 107.457 95.2279 137.812 125.364C159.068 146.492 166.89 142.205 175.239 158.319C185.583 178.221 181.551 199.974 176.391 227.808C174.312 239.127 172.567 242.897 169.186 245.441Z" fill="#FAC9CF" />
  <path opacity="0.62" d="M160.103 230.102C162.265 183.484 149.851 163.374 137.937 153.582C128.829 146.116 119.921 144.657 110.746 133.805C97.722 118.416 96.2109 98.3808 96.8454 84.2761" stroke="white" stroke-width="2.3" stroke-linecap="round" stroke-linejoin="round" />
  <path opacity="0.62" d="M76.0908 178.355C34.2809 155.483 9.36859 141.904 2.3307 149.261C-7.17838 159.195 13.1923 210.234 49.1748 222.929C71.0065 230.644 84.0804 219.084 125.84 227.55C146.895 231.82 157.356 237.559 158.642 235.157C161.339 230.06 116.239 200.291 76.0908 178.355Z" fill="#FAC9CF" />
  <path opacity="0.62" d="M11.197 162.682C24.5966 189.606 39.7076 199.24 50.7612 203.144C67.1495 208.941 79.0296 203.711 104.084 209.992C115.897 212.968 127.23 217.599 137.745 223.746" stroke="white" stroke-width="2.93" stroke-linecap="round" stroke-linejoin="round" />
  <path opacity="0.62" d="M21.3155 124.421C21.5409 127.758 23.1271 146.784 38.0962 161.831C55.453 179.272 69.7208 170.172 94.2156 184.86C123.327 202.293 128.153 230.094 135.015 227.691C142.638 225.022 145.167 187.655 125.54 168.662C109.552 153.19 93.9151 164.45 70.2551 149.628C40.5757 131.036 36.3847 95.3029 27.5185 97.4883C21.5242 98.973 20.7895 116.005 21.3155 124.421Z" fill="#E2A3AE" />
  <path opacity="0.62" d="M114.302 181.391L109.686 169.179M132.803 217.057C131.133 207.364 127.201 193.493 116.047 183.109C102.522 170.522 88.3298 172.266 72.7596 165.042C59.4435 158.862 42.4958 144.89 29.9729 109.449L132.803 217.057ZM40.2918 132.27L30.6491 125.948L40.2918 132.27ZM46.6201 142.738L44.942 131.303L46.6201 142.738ZM50.6608 148.836L33.2957 142.038L50.6608 148.836ZM59.7691 155.959L56.2377 145.599L59.7691 155.959ZM67.2746 162.023L48.6321 162.423L67.2746 162.023ZM76.6334 167.019L70.9646 156.409L76.6334 167.019ZM89.1813 170.656L79.3467 173.383L89.1813 170.656ZM95.0588 172.207L89.1062 160.271L95.0588 172.207ZM107.072 176.645L96.1608 177.52L107.072 176.645Z" stroke="white" stroke-width="1.15" stroke-linecap="round" stroke-linejoin="round" />
  <path d="M109.5 222C108.456 226.785 105.321 243.92 114.807 261.998C126.032 283.383 146.489 290.037 150.366 291.218" stroke="white" stroke-width="3" stroke-linecap="round" stroke-linejoin="round" stroke-dasharray="9 9" />
  <path d="M92.0001 248.383L92.0627 239.272C92.0682 238.565 92.6015 237.996 93.2552 238L99.8239 238.05C100.138 238.053 100.439 238.191 100.66 238.433C100.88 238.676 101.003 239.003 101 239.343L100.937 248.454C100.936 248.673 100.815 248.87 100.629 248.956C100.443 249.042 100.228 249 100.081 248.849L96.8328 245.561C96.6384 245.366 96.3386 245.366 96.1443 245.561L92.85 248.799C92.7002 248.948 92.4829 248.985 92.2978 248.895C92.1127 248.804 91.9956 248.602 92.0001 248.383Z" fill="#B1AFFF" />
</svg>
