<svg width="152" height="304" viewBox="0 0 152 304" fill="none" xmlns="http://www.w3.org/2000/svg">
  <path d="M-194.515 128.303C-166.734 110.267 -149.718 122.453 -128.236 104.943C-102.063 83.5979 -116.214 56.4165 -94.5284 30.8593C-66.1124 -2.66418 5.06622 -11.3585 38.5978 17.1844C73.589 46.9741 45.4703 98.5062 90.0169 141.978C110.324 161.799 123.805 158.551 134.009 177.88C151.579 211.134 136.841 268.638 104.87 283.297C65.223 301.494 33.9147 237.756 -32.2497 243.977C-93.5147 249.746 -105.908 308.065 -153.949 302.673C-198.022 297.726 -243.528 242.4 -236.223 191.555C-232.459 165.338 -214.815 141.479 -194.515 128.303Z" fill="#F1F5FD" />
  <path d="M89 275C93.6662 273.512 110.073 267.659 120.986 250.405C133.893 229.992 129.428 208.948 128.512 205" stroke="white" stroke-width="3" stroke-linecap="round" stroke-linejoin="round" stroke-dasharray="9 9" />
  <path d="M-32.8682 188.21C-50.1107 176.443 -49.3682 132.265 -28.1038 112.962C-11.2944 97.6237 3.57616 111.476 28.6149 97.6031C59.3667 80.5304 53.9836 50.1217 82.4048 31.542C108.929 14.2422 145.62 13.2307 151.292 24.0069C157.212 35.2373 124.748 50.6584 100.575 100.163C83.6011 134.866 92.0573 142.628 75.8255 159.515C55.8399 180.386 27.6455 184.474 -8.44819 189.717C-23.0507 191.864 -28.3513 191.286 -32.8682 188.21Z" fill="#91A0D8" fill-opacity="0.27" />
  <path d="M55.2091 3.60639C37.3426 7.03058 21.2349 16.554 9.66119 30.5357C-10.1729 55.2793 3.57432 72.1668 -11.6635 105.612C-29.7792 145.367 -64.7683 155.615 -60.669 164.027C-56.1142 173.389 -7.77126 171.141 13.7398 143.263C31.2551 120.582 14.5058 102.23 30.075 69.8162C49.5778 29.1748 94.8566 18.5763 90.7366 7.586C87.9209 0.121684 65.9336 1.64752 55.2091 3.60639Z" fill="#9289FF" fill-opacity="0.4" />
  <path d="M-17.7568 173C-18.3083 173.004 -18.7959 172.642 -18.9521 172.113C-19.1389 171.452 -18.7631 170.764 -18.1072 170.565C27.6645 157.337 55.6921 137.836 65.1515 112.619C66.9337 107.561 68.2647 102.354 69.1289 97.0599C70.654 89.0944 72.2408 80.8401 78.0937 71.0793C88.7071 53.4356 107.317 40.6413 133.428 33.0473C134.082 32.8615 134.763 33.2394 134.953 33.8934C135.138 34.5485 134.761 35.2307 134.108 35.4204C108.615 42.8287 90.4794 55.2516 80.2164 72.3381C74.5696 81.7274 73.1064 89.4039 71.5608 97.5345C70.6644 102.964 69.285 108.302 67.439 113.486C57.6912 139.487 29.1277 159.483 -17.4477 172.959L-17.7568 173Z" fill="white" />
  <path d="M21.5644 150.17C-23.8769 166.294 -50.7285 175.898 -49.985 186.12C-48.8696 199.919 3.38787 218.799 37.1383 200.29C57.6488 189.04 57.6901 171.497 92.1635 145.749C109.534 132.771 120.895 128.761 119.945 126.19C117.941 120.781 65.126 134.684 21.5644 150.17Z" fill="#9289FF" fill-opacity="0.4" />
  <path d="M-6.43755 194.983C-16.1242 194.876 -25.7538 193.488 -35.074 190.856C-35.7322 190.665 -36.1242 189.993 -35.9643 189.329C-35.8773 189.011 -35.6666 188.74 -35.379 188.578C-35.0914 188.415 -34.7506 188.373 -34.4321 188.462C-11.4484 194.653 7.5183 193.848 21.9504 185.924C29.4046 181.796 34.167 176.781 39.6748 170.9C46.581 163.145 54.4025 156.25 62.969 150.366C73.2794 143.385 84.5313 137.896 96.3886 134.063C96.6988 133.96 97.0378 133.984 97.3297 134.131C97.6217 134.279 97.842 134.537 97.9415 134.848C98.1464 135.491 97.7964 136.179 97.1547 136.395C85.5236 140.168 74.4827 145.552 64.3563 152.389C55.9433 158.175 48.2611 164.952 41.4762 172.572C35.8234 178.597 30.9368 183.798 23.1514 188.09C14.0354 192.854 3.85257 195.226 -6.43755 194.983ZM-47.3767 160C-47.6535 159.994 -47.8952 159.812 -47.9755 159.548C-48.0693 159.224 -47.8855 158.886 -47.5625 158.787C-29.536 153.604 -15.8457 144.823 -6.84279 132.69C2.16015 120.556 3.48167 109.492 5.19554 97.482C6.03498 89.8747 7.59051 82.3628 9.84156 75.0455C18.1011 50.2028 40.0923 29.0207 75.1129 12.0545C75.4214 11.9188 75.7827 12.0447 75.9389 12.3424C76.0867 12.6491 75.9574 13.0171 75.6498 13.165C40.9595 29.9667 19.1955 50.9226 11.0185 75.4362C8.78531 82.6788 7.24358 90.1153 6.41383 97.6465C4.72062 109.821 3.11 121.338 -5.85164 133.409C-14.8133 145.481 -28.9165 154.715 -47.1496 159.979L-47.3767 160Z" fill="white" />
  <path d="M47.6157 28.9852C47.5263 29.0049 47.4338 29.0049 47.3445 28.9852C47.1947 28.9118 47.0809 28.7785 47.0296 28.6163C46.9784 28.4542 46.9941 28.2776 47.0732 28.1277L53.8124 14.3649C53.9709 14.0427 54.3507 13.9095 54.6679 14.0648C54.965 14.2423 55.0824 14.6227 54.9391 14.9437L48.179 28.7065C48.0531 28.896 47.8384 29.0022 47.6157 28.9852ZM35.5992 39C35.3002 39.0033 35.0456 38.7764 35.0054 38.4708C34.9653 38.1651 35.1521 37.8765 35.4411 37.7976L49.2711 34.0274C49.4206 33.9778 49.5836 33.9961 49.7193 34.0777C49.855 34.1594 49.9506 34.2967 49.9823 34.4554C50.0594 34.7804 49.8775 35.1111 49.5674 35.2094L35.7375 38.9796L35.5992 39ZM27.6689 46H27.4912C27.32 45.9556 27.1745 45.8482 27.0869 45.7016C26.9993 45.5549 26.9768 45.3812 27.0245 45.2188L33.6912 21.4864C33.7331 21.3199 33.8441 21.1765 33.999 21.089C34.1539 21.0015 34.3395 20.9773 34.5135 21.0219C34.8622 21.1238 35.0669 21.4664 34.9801 21.8031L28.3134 45.5566C28.2192 45.8193 27.961 45.9969 27.6689 46ZM20.6266 57.9995C20.3855 58.0097 20.1631 57.8752 20.0685 57.662C19.9914 57.5208 19.9788 57.3552 20.0337 57.2047C20.0885 57.0543 20.2059 56.9324 20.3579 56.8681L33.1119 51.0526C33.4207 50.9216 33.7824 51.0431 33.9388 51.3304C34.0868 51.6264 33.9573 51.9816 33.6494 52.1244L20.8746 57.9399L20.6266 57.9995ZM13.4427 68.9794C13.1715 68.972 12.9454 68.7449 12.9093 68.4438L10.0033 44.6896C9.97079 44.3549 10.1834 44.0527 10.4815 44.0097C10.626 43.9801 10.775 44.0186 10.8934 44.1161C11.0118 44.2136 11.089 44.3614 11.1068 44.5248L13.9945 68.2995C14.0153 68.4637 13.9765 68.6304 13.8865 68.7621C13.7966 68.8938 13.6632 68.9795 13.5163 69L13.4427 68.9794ZM8.61236 81C8.41272 80.9987 8.22684 80.8987 8.1167 80.7332C8.02025 80.6 7.98128 80.4341 8.00842 80.2723C8.03556 80.1104 8.1266 79.9661 8.26129 79.8712L21.0245 71.1075C21.3096 70.9148 21.698 70.9883 21.8919 71.2716C22.0858 71.555 22.0118 71.9409 21.7267 72.1336L8.96347 80.8769C8.86409 80.9567 8.74014 81.0001 8.61236 81ZM5.41022 97.9989C5.1638 97.9997 4.94213 97.8384 4.85178 97.5925L0.0852036 84.9718C-0.0365186 84.7541 -0.0271592 84.4799 0.109099 84.2723C0.245358 84.0647 0.482892 83.9628 0.715025 84.0124C0.94716 84.0619 1.13025 84.2535 1.1821 84.5012L5.9487 97.1219C6.01419 97.2774 6.0171 97.4549 5.95673 97.6128C5.89635 97.7706 5.77803 97.8948 5.62961 97.9561C5.56087 97.9895 5.48551 98.0042 5.41022 97.9989ZM4.58819 104.999C4.39024 105.001 4.20433 104.906 4.09216 104.745C3.91841 104.468 3.99721 104.105 4.27072 103.922L18.1601 95.052C18.4293 94.9322 18.7469 95.0253 18.9061 95.2708C19.0653 95.5163 19.018 95.8399 18.795 96.031L4.90567 104.901C4.81521 104.971 4.7025 105.005 4.58819 104.999ZM0.386107 122C0.088017 121.998 -0.169817 121.796 -0.237123 121.511L-2.95847 107.831C-3.04804 107.603 -2.99003 107.344 -2.81104 107.173C-2.63205 107.002 -2.36658 106.953 -2.13635 107.047C-1.90613 107.142 -1.7555 107.362 -1.75357 107.607L0.988524 121.266C1.05277 121.592 0.840813 121.908 0.510741 121.98L0.386107 122ZM-4.38495 130.998C-4.6129 130.993 -4.82163 130.867 -4.93558 130.665C-5.08453 130.36 -4.96658 129.99 -4.67047 129.833L10.1154 122.073C10.258 121.994 10.426 121.978 10.5803 122.03C10.7345 122.081 10.8614 122.194 10.9312 122.343C11.0834 122.643 10.975 123.011 10.6865 123.176L-4.03824 130.936C-4.14689 130.986 -4.26609 131.007 -4.38495 130.998Z" fill="white" />
  <path d="M62.0001 244.383L62.0627 235.272C62.0682 234.565 62.6015 233.996 63.2552 234L69.8239 234.05C70.1384 234.053 70.4391 234.191 70.6596 234.433C70.8802 234.676 71.0026 235.003 71 235.343L70.9374 244.454C70.9364 244.673 70.8154 244.87 70.6293 244.956C70.4432 245.042 70.2277 245 70.0809 244.849L66.8328 241.561C66.6384 241.366 66.3386 241.366 66.1443 241.561L62.85 244.799C62.7002 244.948 62.4829 244.985 62.2978 244.895C62.1127 244.804 61.9956 244.602 62.0001 244.383Z" fill="#B1AFFF" />
</svg>
