<?xml version="1.0" encoding="UTF-8"?>
<svg fill="none" viewBox="0 0 800 800" xmlns="http://www.w3.org/2000/svg">
<path d="m203.4 738.86c-5.404-2.859-7.147-3.859-9.881-7.076-16.503-19.42-26.553-42.843-39.843-64.255-8.34-13.436-21.152-21.601-34.653-28.964-13.104-7.147-26.603-13.635-38.594-22.699-17.421-13.169-26.391-30.747-27.064-52.478-0.3192-10.347-0.8214-20.791 0.1553-31.056 2.6073-27.393-4.9265-51.58-20.526-73.887-5.9031-8.443-10.935-17.597-15.483-26.861-10.29-20.951-9.8254-42.091 0.2346-63.124 5.7237-11.972 13.007-23.023 20.075-34.18 10.752-16.969 16.917-34.971 15.749-55.384-0.7057-12.336-0.1691-24.738-0.3209-37.109-0.3451-27.876 12.055-48.519 35.645-62.668 9.1092-5.464 18.317-10.839 27.847-15.502 20.931-10.238 36.323-25.598 46.664-46.556 7.101-14.397 14.474-28.728 25.128-41.062 13.073-15.136 29.792-22.01 49.367-22.573 10.053-0.2884 20.209-0.9204 30.164 0.1105 28.091 2.9045 52.621-5.4533 75.338-21.347 7.501-5.246 15.704-9.5561 23.842-13.802 21.993-11.478 44.037-10.901 66.136 0.0622 11.364 5.638 22.004 12.474 32.613 19.313 17.2 11.084 35.653 16.771 56.224 15.875 12.341-0.5388 24.719-0.1814 37.079-0.2901 27.913-0.247 48.312 12.518 62.268 36.196 5.688 9.6494 11.367 19.342 16.335 29.372 9.687 19.557 24.24 33.895 43.701 43.626 12.067 6.033 23.958 12.45 35.107 20.127 19.947 13.739 29.981 32.763 30.237 56.942 0.098 9.494 0.719 19.062-0.195 28.47-2.696 27.688 4.887 52.202 20.781 74.671 4.959 7.011 9.061 14.669 13.157 22.246 13.634 25.226 12.271 50.157-2.024 74.651-7.099 12.162-14.326 24.246-21.523 36.347-7.235 12.167-10.547 25.333-10.384 39.467 0.167 14.384-2e-3 28.775 0.243 43.158 0.475 27.9-11.872 48.585-35.327 62.863-10.055 6.121-20.402 11.796-30.847 17.228-17.002 8.843-30.97 20.661-39.955 37.952-6.883 13.246-14.113 26.313-21.195 39.458-3.68 4.881-6.264 7.068-9.033 10.899-3.647 3.982-4.647 5.233-9.098 8.22-15.393 10.333-32.571 13.037-50.717 12.411-12.899-0.446-25.823-0.097-38.737-0.13-8.984-0.026-17.637 1.635-25.854 5.246-25.544 11.228-46.989 30.389-74.184 38.432-7.057 0.803-9.057 0-13.389-0.262-21.668-1.313-39.291-11.491-56.377-22.927-21.073-14.103-43.203-22.363-69.126-20.751-19.608 1.22-39.467 1.735-58.852-3.366-5.313-1.398-5.506-2.173-10.909-5.032z" clip-rule="evenodd" fill="#6534FF" fill-rule="evenodd"/>
<g filter="url(#a)">
<circle cx="336" cy="336" r="308" fill="#fff"/>
</g>
<path d="m192.59 270.41c-0.063 5.375-0.594 10.187-1.594 14.437-0.937 4.25-2.312 8.094-4.125 11.531-1.75 3.375-3.906 6.438-6.469 9.188-2.5 2.687-5.375 5.219-8.625 7.593-6.249 4.5-13.093 7.907-20.531 10.219-7.437 2.25-14.906 3.375-22.406 3.375-1.25 0-2.5-0.031-3.75-0.094-1.187-0.062-2.406-0.156-3.656-0.281l-3.094 34.219-1.593 2.906c-0.125 0.25-1.188 0.75-3.188 1.5s-4.5 1.625-7.5 2.625l-5.906 1.969c-1.8749 0.687-3.5312 1.312-4.9687 1.875-1.4375 0.562-2.7812 1.062-4.0312 1.5-1.25 0.437-2.4687 0.749-3.6562 0.937-1.1875 0.25-2.4375 0.375-3.75 0.375-0.875 0-1.5625-0.219-2.0625-0.656-0.5-0.438-0.75-1.281-0.75-2.531l1.0313-16.032c0.1875-3.187 0.4062-6.375 0.6562-9.562 0.3125-3.25 0.5938-6.937 0.8438-11.062l1.7812-22.406c0.375-4.563 0.7188-9.125 1.0312-13.688 0.3125-4.562 0.625-8.906 0.9375-13.031s0.5938-7.969 0.8438-11.531c0.25-3.625 0.4687-6.781 0.6562-9.469-3.3749 0.75-6.0937 1.313-8.1562 1.688-1.9999 0.312-3.5312 0.468-4.5937 0.468-1.3125 0-1.9687-0.562-1.9687-1.687 0.875-3.063 1.6875-6.063 2.4375-9 0.6875-2.5 1.375-5.062 2.0625-7.687 0.75-2.688 1.375-4.938 1.8749-6.75 0.3125-1.125 0.6563-1.969 1.0313-2.532 0.4375-0.625 0.9687-1.093 1.5937-1.406 0.6875-0.375 1.5313-0.687 2.5313-0.937 1.0624-0.313 2.3437-0.719 3.8437-1.219 1.1875-0.375 2.8437-0.781 4.9687-1.219 2.1875-0.5 4.6562-0.969 7.4064-1.406 2.812-0.5 5.843-0.969 9.093-1.406 3.25-0.438 6.532-0.813 9.844-1.125 3.375-0.375 6.688-0.657 9.938-0.844 3.25-0.25 6.312-0.375 9.187-0.375 7.125 0 13.875 0.656 20.25 1.969 6.375 1.312 11.968 3.562 16.781 6.75 4.812 3.125 8.625 7.375 11.437 12.75 2.875 5.312 4.313 11.999 4.313 20.062zm-68.531 28.125c0 0.687 0.125 1.312 0.375 1.875 0.25 0.5 0.938 0.75 2.063 0.75 1.75 0 3.812-0.375 6.187-1.125 2.438-0.813 4.844-2 7.219-3.563 2.437-1.562 4.687-3.5 6.75-5.812 2.062-2.313 3.625-5.032 4.687-8.157 0.438-1.249 0.781-2.843 1.031-4.781 0.313-1.937 0.469-4.218 0.469-6.843 0-4.375-1.531-7.594-4.594-9.657-3-2.062-6.937-3.093-11.812-3.093-0.813 0-1.75 0.062-2.812 0.187-1 0.063-1.969 0.219-2.907 0.469-0.875 0.25-1.625 0.562-2.25 0.937-0.625 0.313-0.968 0.75-1.031 1.313l-0.187 2.062c-0.063 0.813-0.188 2.157-0.375 4.032-0.188 1.812-0.407 3.906-0.657 6.281-0.187 2.375-0.406 4.875-0.656 7.5-0.187 2.625-0.406 5.125-0.656 7.5-0.188 2.375-0.375 4.468-0.563 6.281-0.125 1.812-0.218 3.094-0.281 3.844z" fill="#6534FF"/>
<path d="m239.66 303.87c0 4.5 0.469 9.032 1.406 13.594 1 4.5 2.625 8.562 4.875 12.187s5.219 6.563 8.906 8.813c3.688 2.25 8.25 3.375 13.688 3.375 4.187-0.25 7.843-1.094 10.968-2.531 3.188-1.5 5.907-3.407 8.157-5.719 2.312-2.375 4.218-5.063 5.718-8.063 1.5-3.062 2.688-6.25 3.563-9.562 0.875-3.375 1.468-6.812 1.781-10.312 0.375-3.5 0.562-6.875 0.562-10.125 0-4.438-0.593-8.719-1.781-12.844-1.187-4.187-2.969-7.875-5.344-11.062-2.375-3.188-5.343-5.75-8.906-7.688-3.5-1.937-7.593-2.906-12.281-2.906-3.687 0-7.031 0.687-10.031 2.062-2.937 1.375-5.562 3.219-7.875 5.532-2.312 2.25-4.312 4.875-6 7.875-1.625 2.937-3 5.999-4.125 9.187-1.062 3.125-1.875 6.281-2.437 9.469-0.5 3.125-0.782 6.031-0.844 8.718zm18.281 68.812c-9.375 0-17.75-1.75-25.125-5.25s-13.625-8.218-18.75-14.156c-5.062-6-8.968-12.906-11.718-20.718-2.688-7.875-4.032-16.188-4.032-24.938 0-9.812 1.375-18.843 4.125-27.093 2.813-8.313 6.719-15.656 11.719-22.031 5-6.438 10.938-11.844 17.812-16.219 6.938-4.437 14.532-7.719 22.782-9.844 0.75 0 1.312-0.593 1.687-1.781 0.438-1.187 0.813-2.5 1.125-3.937 0.313-1.438 0.687-2.75 1.125-3.938 0.437-1.187 1.062-1.781 1.875-1.781 12.125 1.25 23.031 3.406 32.718 6.469 9.688 3 17.907 7.312 24.657 12.937 6.749 5.625 11.906 12.75 15.468 21.375 3.625 8.562 5.438 19.031 5.438 31.406 0 7.937-0.969 15.406-2.907 22.406-1.937 7-4.656 13.469-8.156 19.406-3.5 5.875-7.719 11.156-12.656 15.844-4.875 4.625-10.312 8.562-16.312 11.812s-12.469 5.719-19.406 7.406c-6.875 1.75-14.032 2.625-21.469 2.625z" fill="#6534FF"/>
<path d="m344.84 360.97c0.812-1.625 1.656-3.438 2.531-5.438 0.875-2.062 1.687-4.281 2.437-6.656l2.531-6.187c-1.125-1.688-2.281-3.5-3.468-5.438-1.125-2-2.156-4.031-3.094-6.094-0.937-2.062-1.719-4.125-2.344-6.187-0.562-2.063-0.843-4.063-0.843-6 0-0.125 0.468-0.219 1.406-0.281 1-0.125 2.219-0.219 3.656-0.282 1.5-0.062 3.094-0.093 4.781-0.093 1.75-0.063 3.344-0.094 4.781-0.094 1.5-0.063 2.719-0.094 3.657-0.094 1-0.062 1.5-0.094 1.5-0.094 1.437-3.75 2.843-7.312 4.218-10.687s2.75-6.781 4.125-10.219c1.375-3.437 2.75-6.937 4.125-10.5 1.375-3.625 2.75-7.499 4.125-11.624 2.625-7.75 5.188-14.563 7.688-20.438s4.843-11.343 7.031-16.406c0.25-0.625 0.656-1.187 1.219-1.687 0.625-0.563 1.281-1.032 1.968-1.407 0.688-0.375 1.344-0.687 1.969-0.937 0.688-0.25 1.219-0.438 1.594-0.563 0.25-0.062 1.187-0.343 2.812-0.843 1.688-0.5 3.594-1.032 5.719-1.594 2.125-0.563 4.219-1.063 6.281-1.5 2.125-0.438 3.813-0.656 5.063-0.656h1.687c1 0 1.938 0.25 2.813 0.75 0.937 0.437 1.562 1.343 1.875 2.718 3 7.688 6.187 16.094 9.562 25.219 3.438 9.062 6.781 19.062 10.031 30 1.75 5.875 3.469 11.437 5.156 16.687 1.688 5.25 3.375 10.375 5.063 15.375 1.687 5 3.375 10 5.062 15 1.75 5 3.532 10.156 5.344 15.468 0.563 2.25 1.125 4.032 1.688 5.344 0.625 1.313 1.187 2.344 1.687 3.094s0.906 1.312 1.219 1.687c0.312 0.313 0.469 0.657 0.469 1.032s-0.594 0.75-1.782 1.125l-20.156 6.562c-1.5 0.563-3.031 1.125-4.594 1.688-1.562 0.562-3.031 1.062-4.406 1.5-1.375 0.437-2.593 0.781-3.656 1.031-1 0.312-1.719 0.468-2.156 0.468h-0.563c-0.875 0-1.5-0.281-1.875-0.843-0.375-0.5-0.625-1-0.75-1.5-0.625-2.063-1.25-3.906-1.875-5.531-0.625-1.688-1.25-3.344-1.875-4.969-0.562-1.688-1.156-3.469-1.781-5.344-0.562-1.875-1.125-4.094-1.687-6.656-0.125-0.313-0.469-0.563-1.032-0.75-0.562-0.25-1.25-0.438-2.062-0.563-0.75-0.125-1.563-0.187-2.438-0.187-0.875-0.063-1.687-0.094-2.437-0.094-2.375 0-4.313 0.031-5.812 0.094-1.438 0-2.719 0.031-3.844 0.094-1.125 0-2.219 0.031-3.281 0.093h-3.75-5.625c-1.875-0.062-3.594-0.125-5.157-0.187l-5.343-0.188c-1.625 4.5-3.25 8.719-4.875 12.657-1.625 3.937-3.375 8-5.25 12.187-0.125 0.5-0.438 0.906-0.938 1.219-0.437 0.312-0.906 0.468-1.406 0.468-0.375 0-0.594-0.031-0.656-0.093-6.063-2.188-11.156-4.344-15.281-6.469s-7.719-4.187-10.781-6.187zm63.187-84.281c-1.5 5.563-3 10.625-4.5 15.187-1.438 4.5-2.782 8.5-4.032 12-1.187 3.5-2.218 6.469-3.093 8.907-0.875 2.374-1.5 4.218-1.875 5.531v0.843c0 0.375-0.032 0.625-0.094 0.75h22.5c-0.688-3.062-1.438-6.156-2.25-9.281-0.75-3.125-1.5-6.406-2.25-9.843-0.75-3.438-1.5-7.125-2.25-11.063-0.75-3.937-1.469-8.281-2.156-13.031z" fill="#6534FF"/>
<path d="m597.03 270.41c-0.063 5.375-0.594 10.187-1.594 14.437-0.937 4.25-2.312 8.094-4.125 11.531-1.75 3.375-3.906 6.438-6.468 9.188-2.5 2.687-5.375 5.219-8.625 7.593-6.25 4.5-13.094 7.907-20.531 10.219-7.438 2.25-14.907 3.375-22.407 3.375-1.25 0-2.499-0.031-3.749-0.094-1.188-0.062-2.407-0.156-3.657-0.281l-3.093 34.219-1.594 2.906c-0.125 0.25-1.188 0.75-3.188 1.5s-4.5 1.625-7.5 2.625l-5.906 1.969c-1.875 0.687-3.531 1.312-4.968 1.875-1.438 0.562-2.782 1.062-4.032 1.5-1.25 0.437-2.468 0.749-3.656 0.937-1.187 0.25-2.437 0.375-3.75 0.375-0.875 0-1.562-0.219-2.062-0.656-0.5-0.438-0.75-1.281-0.75-2.531l1.031-16.032c0.187-3.187 0.406-6.375 0.656-9.562 0.313-3.25 0.594-6.937 0.844-11.062l1.781-22.406c0.375-4.563 0.719-9.125 1.031-13.688 0.313-4.562 0.625-8.906 0.938-13.031 0.312-4.125 0.594-7.969 0.844-11.531 0.25-3.625 0.468-6.781 0.656-9.469-3.375 0.75-6.094 1.313-8.156 1.688-2 0.312-3.532 0.468-4.594 0.468-1.313 0-1.969-0.562-1.969-1.687 0.875-3.063 1.688-6.063 2.438-9 0.687-2.5 1.375-5.062 2.062-7.687 0.75-2.688 1.375-4.938 1.875-6.75 0.313-1.125 0.656-1.969 1.031-2.532 0.438-0.625 0.969-1.093 1.594-1.406 0.688-0.375 1.531-0.687 2.531-0.937 1.063-0.313 2.344-0.719 3.844-1.219 1.188-0.375 2.844-0.781 4.969-1.219 2.187-0.5 4.656-0.969 7.406-1.406 2.812-0.5 5.844-0.969 9.094-1.406 3.25-0.438 6.531-0.813 9.843-1.125 3.375-0.375 6.688-0.657 9.938-0.844 3.25-0.25 6.312-0.375 9.187-0.375 7.125 0 13.875 0.656 20.25 1.969 6.375 1.312 11.969 3.562 16.781 6.75 4.813 3.125 8.625 7.375 11.438 12.75 2.874 5.312 4.312 11.999 4.312 20.062zm-68.531 28.125c0 0.687 0.125 1.312 0.375 1.875 0.25 0.5 0.938 0.75 2.063 0.75 1.75 0 3.812-0.375 6.187-1.125 2.438-0.813 4.844-2 7.219-3.563 2.437-1.562 4.687-3.5 6.75-5.812 2.062-2.313 3.625-5.032 4.687-8.157 0.438-1.249 0.782-2.843 1.032-4.781 0.312-1.937 0.468-4.218 0.468-6.843 0-4.375-1.531-7.594-4.593-9.657-3-2.062-6.938-3.093-11.813-3.093-0.812 0-1.75 0.062-2.812 0.187-1 0.063-1.969 0.219-2.907 0.469-0.875 0.25-1.625 0.562-2.25 0.937-0.625 0.313-0.968 0.75-1.031 1.313l-0.187 2.062c-0.063 0.813-0.188 2.157-0.375 4.032-0.188 1.812-0.406 3.906-0.656 6.281-0.188 2.375-0.407 4.875-0.657 7.5-0.187 2.625-0.406 5.125-0.656 7.5-0.187 2.375-0.375 4.468-0.562 6.281-0.125 1.812-0.219 3.094-0.282 3.844z" fill="#6534FF"/>
<path d="m378.38 408.64c0.338-9.082 8.031-16.068 17.091-15.36 54.073 4.224 225.64 17.737 277.21 23.106 7.737 0.806 13.355 7.329 13.191 15.106-0.972 46.138-7.385 52.278-19.914 146.46-1.117 8.398-8.558 14.606-17.004 13.939-68.161-5.382-77.769-11.532-260.27-11.881-9.07-0.018-16.4-7.548-16.062-16.611l5.762-154.76z" fill="#1F0080"/>
<rect x="376" y="375" width="298" height="198" rx="16" fill="#fff"/>
<path d="m414 551.56c0.125-2.937 0.219-5.25 0.281-6.937 0.063-1.75 0.094-3.094 0.094-4.031 0.063-0.938 0.094-1.594 0.094-1.969v-1.031-1.313c0.062-0.5 0.125-1.312 0.187-2.437 0.063-1.188 0.156-2.782 0.282-4.782 0.124-2.062 0.281-4.781 0.468-8.156 0.125-2.062 0.313-3.468 0.563-4.218 0.312-0.813 1.031-1.313 2.156-1.5h17.25c6-0.063 11.656-0.126 16.969-0.188 0.562 0 1.031 0.156 1.406 0.469 0.375 0.312 0.562 0.906 0.562 1.781l-2.624 29.438c-0.25 2.062-0.5 3.468-0.75 4.218-0.188 0.813-0.876 1.282-2.063 1.406-5.313 0.063-10.781 0.126-16.406 0.188-5.563 0.062-11.375 0.094-17.438 0.094-0.375 0-0.656-0.032-0.843-0.094-0.126-0.062-0.188-0.25-0.188-0.562v-0.376z" fill="#6534FF"/>
<path d="m473.06 508.25c0.813-8.562 1.626-17.031 2.438-25.406s1.531-16.969 2.156-25.782c0.125-2.062 0.313-3.468 0.563-4.218 0.312-0.813 1.031-1.344 2.156-1.594 5.313-1.062 10.875-2.156 16.687-3.281 5.813-1.188 11.438-2.688 16.876-4.5 0.187-0.063 0.468-0.094 0.843-0.094 0.688 0 1.031 0.25 1.031 0.75l-8.437 91.313c-0.187 2.062-0.406 3.5-0.656 4.312-0.25 0.75-0.938 1.25-2.063 1.5-5.312 1.625-10.687 3.438-16.125 5.438-5.437 2-11.187 4.031-17.25 6.093-0.187 0.063-0.469 0.094-0.843 0.094-0.688 0-1.032-0.313-1.032-0.937 0-0.063 0.063-0.907 0.188-2.532s0.281-3.718 0.468-6.281c0.25-2.563 0.5-5.437 0.75-8.625s0.5-6.375 0.75-9.562c0.313-3.188 0.594-6.25 0.844-9.188s0.469-5.438 0.656-7.5zm7.032-74.812c0.187-2.688 0.312-4.75 0.375-6.188 0.125-1.438 0.219-2.5 0.281-3.188 0.062-0.75 0.094-1.218 0.094-1.406v-0.375c0.062-0.125 0.094-0.312 0.094-0.562 0.062-0.313 0.124-0.907 0.187-1.781 0.063-0.938 0.156-2.282 0.281-4.032s0.313-4.156 0.563-7.218c0.125-2.063 0.312-3.469 0.562-4.219 0.313-0.813 1.031-1.344 2.157-1.594 5.312-1.063 10.874-2.156 16.687-3.281 5.813-1.188 11.437-2.688 16.875-4.5 0.188-0.063 0.469-0.094 0.844-0.094 0.187 0.375 0.437 0.625 0.75 0.75l0.281 0.188-2.063 25.687c-0.187 2.063-0.437 3.5-0.75 4.313-0.25 0.812-0.906 1.312-1.968 1.5-5.313 1-10.688 2.093-16.125 3.281-5.438 1.187-11.188 2.375-17.25 3.562-0.188 0.063-0.469 0.094-0.844 0.094-0.687 0-1.031-0.313-1.031-0.937z" fill="#6534FF"/>
<path d="m605.81 551.38c-0.687 0.187-1.593 0.469-2.718 0.844-1.125 0.437-2.219 0.656-3.282 0.656-0.874 0-1.656-0.219-2.343-0.656-0.625-0.438-0.938-1.188-0.938-2.25v-0.563c0.375-3.375 0.688-6.218 0.938-8.531 0.25-2.375 0.469-4.5 0.656-6.375 0.25-1.938 0.437-3.844 0.563-5.719 0.187-1.937 0.406-4.156 0.656-6.656 0.25-2.563 0.531-5.563 0.844-9 0.374-3.5 0.812-7.844 1.312-13.031 0.312-3.188 0.594-6.438 0.844-9.75 0.25-3.313 0.375-6.375 0.375-9.188 0-1.875-0.157-3.594-0.469-5.156-0.25-1.625-0.75-3-1.5-4.125-0.688-1.187-1.656-2.094-2.906-2.719s-2.844-0.937-4.782-0.937c-1.437 0-3.437 0.312-6 0.937-2.5 0.625-5 1.656-7.5 3.094s-4.718 3.344-6.656 5.719c-1.937 2.312-3.031 5.187-3.281 8.625-0.375 4.625-0.719 8.594-1.031 11.906-0.313 3.25-0.594 6.031-0.844 8.344-0.25 2.25-0.469 4.094-0.656 5.531-0.125 1.437-0.219 2.656-0.282 3.656-0.062 0.25-0.156 0.938-0.281 2.063s-0.281 2.468-0.469 4.031c-0.124 1.563-0.281 3.219-0.468 4.969-0.125 1.75-0.282 3.406-0.469 4.968-0.125 1.563-0.25 2.907-0.375 4.032-0.062 1.125-0.094 1.812-0.094 2.062v1.313c0.063 0.312 0.094 0.625 0.094 0.937 0 0.5-0.25 0.938-0.75 1.313-0.438 0.312-1.469 0.687-3.094 1.125l-24.844 8.531c-0.687 0.25-1.593 0.563-2.718 0.937-1.125 0.376-2.219 0.563-3.282 0.563-0.874 0-1.656-0.219-2.343-0.656-0.625-0.438-0.938-1.188-0.938-2.25l8.531-95.813c0.188-2.062 0.407-3.468 0.657-4.218 0.312-0.813 1.031-1.344 2.156-1.594 5.687-1.125 11.531-2.25 17.531-3.375 6-1.188 11.844-2.688 17.532-4.5 0.5 0 0.781 0.093 0.843 0.281 0.125 0.125 0.188 0.344 0.188 0.656 0 0.125-0.031 0.313-0.094 0.563 0 0.25-0.094 0.812-0.281 1.687-0.125 0.875-0.344 2.219-0.656 4.032-0.25 1.75-0.626 4.218-1.126 7.406 4.313-2.5 8.344-4.5 12.094-6 3.813-1.563 7.375-2.75 10.688-3.563 3.375-0.875 6.531-1.437 9.468-1.687 2.938-0.313 5.688-0.469 8.25-0.469 8.813 0 15.219 2.687 19.219 8.063 4 5.312 6 13.312 6 24 0 1.5-0.031 3.062-0.093 4.687-0.063 1.563-0.188 3.187-0.376 4.875l-4.312 40.312c-0.312 2.626-0.5 5.063-0.562 7.313-0.063 2.187-0.094 4.75-0.094 7.687v1.313c0.062 0.313 0.094 0.594 0.094 0.844 0 0.562-0.25 1-0.75 1.312-0.438 0.313-1.469 0.719-3.094 1.219l-22.782 6.375z" fill="#6534FF"/>
<defs>
<filter id="a" x="28" y="28" width="632" height="632" color-interpolation-filters="sRGB" filterUnits="userSpaceOnUse">
<feFlood flood-opacity="0" result="BackgroundImageFix"/>
<feColorMatrix in="SourceAlpha" result="hardAlpha" values="0 0 0 0 0 0 0 0 0 0 0 0 0 0 0 0 0 0 127 0"/>
<feOffset dx="16" dy="16"/>
<feComposite in2="hardAlpha" operator="out"/>
<feColorMatrix values="0 0 0 0 0.121569 0 0 0 0 0 0 0 0 0 0.501961 0 0 0 1 0"/>
<feBlend in2="BackgroundImageFix" result="effect1_dropShadow_286_45"/>
<feBlend in="SourceGraphic" in2="effect1_dropShadow_286_45" result="shape"/>
<feColorMatrix in="SourceAlpha" result="hardAlpha" values="0 0 0 0 0 0 0 0 0 0 0 0 0 0 0 0 0 0 127 0"/>
<feOffset dx="12" dy="12"/>
<feComposite in2="hardAlpha" k2="-1" k3="1" operator="arithmetic"/>
<feColorMatrix values="0 0 0 0 1 0 0 0 0 0.538275 0 0 0 0 0.203922 0 0 0 1 0"/>
<feBlend in2="shape" result="effect2_innerShadow_286_45"/>
</filter>
</defs>
</svg>
