<svg width="8" height="9" viewBox="0 0 8 9" fill="none" xmlns="http://www.w3.org/2000/svg">
  <path d="M7.97721 5.34626C7.85502 3.98443 7.11435 3.13102 6.46094 2.37794C5.8559 1.68075 5.33333 1.07869 5.33333 0.190561C5.33333 0.119223 5.28667 0.0540198 5.21267 0.021329C5.13844 -0.0115579 5.04925 -0.0061719 4.98177 0.0358107C4.00044 0.636943 3.18165 1.65011 2.89563 2.61682C2.69706 3.28984 2.67079 4.04645 2.6671 4.54616C1.76085 4.38046 1.55556 3.22 1.5534 3.20735C1.54319 3.14716 1.50023 3.09478 1.43773 3.06618C1.37458 3.03794 1.30035 3.03589 1.23633 3.06302C1.18881 3.08271 0.0698749 3.56941 0.00477076 5.51269C0.000208256 5.57734 0 5.64219 0 5.70701C0 7.59493 1.79448 9.13102 4 9.13102C4.00304 9.1312 4.00629 9.13158 4.0089 9.13102C4.00977 9.13102 4.01063 9.13102 4.01171 9.13102C6.21181 9.12562 8 7.5916 8 5.70701C8 5.61208 7.97721 5.34626 7.97721 5.34626ZM4 8.75058C3.26475 8.75058 2.66667 8.20518 2.66667 7.53476C2.66667 7.51191 2.66646 7.48887 2.6684 7.46064C2.67729 7.1779 2.74002 6.9849 2.80881 6.85652C2.93773 7.09356 3.16819 7.31147 3.54254 7.31147C3.66538 7.31147 3.76477 7.22638 3.76477 7.12124C3.76477 6.85041 3.77129 6.53795 3.85006 6.25595C3.92017 6.0059 4.08769 5.73988 4.29994 5.52664C4.39433 5.80343 4.57837 6.02745 4.75806 6.2461C5.01523 6.55892 5.28106 6.88235 5.32773 7.43388C5.33054 7.46658 5.33338 7.49946 5.33338 7.53476C5.33333 8.20516 4.73525 8.75058 4 8.75058Z" fill="#8492CE"/>
</svg>
