<svg width="12" height="10" viewBox="0 0 12 10" fill="none" xmlns="http://www.w3.org/2000/svg">
  <path d="M3.48651 5.79944C3.82374 5.79944 4.14971 5.77901 4.45817 5.74098V2.57015C4.14974 2.53215 3.82374 2.51172 3.48651 2.51172C1.56097 2.51172 0 3.17568 0 3.99475V4.31638C0 5.13542 1.56097 5.79944 3.48651 5.79944Z" fill="#8492CE"/>
  <path d="M3.48651 7.45508C3.82374 7.45508 4.14971 7.43466 4.45817 7.39668V6.46726C4.14965 6.50526 3.82383 6.52596 3.48651 6.52596C1.80572 6.52596 0.402851 6.02003 0.0733272 5.34668C0.0253388 5.44476 0 5.54632 0 5.65043V5.97205C0 6.79112 1.56097 7.45508 3.48651 7.45508Z" fill="#8492CE"/>
  <path d="M4.45817 8.19526V8.12302C4.14965 8.16102 3.82383 8.18173 3.48651 8.18173C1.80572 8.18173 0.402851 7.67579 0.0733272 7.00244C0.0253388 7.1005 0 7.20205 0 7.30616V7.62779C0 8.44689 1.56097 9.11085 3.48651 9.11085C3.87158 9.11085 4.24195 9.08422 4.5883 9.03518C4.50245 8.87049 4.45817 8.6968 4.45817 8.51686V8.19526Z" fill="#8492CE"/>
  <path d="M8.51336 0C6.58782 0 5.02686 0.66396 5.02686 1.48303V1.80466C5.02686 2.62373 6.58782 3.28769 8.51336 3.28769C10.4389 3.28769 11.9999 2.62373 11.9999 1.80466V1.48303C11.9999 0.66396 10.4389 0 8.51336 0Z" fill="#8492CE"/>
  <path d="M8.51336 4.01431C6.83258 4.01431 5.42971 3.5084 5.10018 2.83502C5.05219 2.93308 5.02686 3.03463 5.02686 3.13877V3.46039C5.02686 4.27947 6.58782 4.94343 8.51336 4.94343C10.4389 4.94343 11.9999 4.27947 11.9999 3.46039V3.13877C11.9999 3.03463 11.9745 2.93308 11.9265 2.83502C11.597 3.5084 10.1942 4.01431 8.51336 4.01431Z" fill="#8492CE"/>
  <path d="M8.51336 5.67001C6.83258 5.67001 5.42971 5.16407 5.10018 4.49072C5.05219 4.58878 5.02686 4.69033 5.02686 4.79447V5.1161C5.02686 5.9352 6.58782 6.59916 8.51336 6.59916C10.4389 6.59916 11.9999 5.9352 11.9999 5.1161V4.79447C11.9999 4.69033 11.9745 4.58878 11.9265 4.49072C11.597 5.1641 10.1942 5.67001 8.51336 5.67001Z" fill="#8492CE"/>
  <path d="M8.51336 7.41513C6.83258 7.41513 5.42971 6.90919 5.10018 6.23584C5.05219 6.33392 5.02686 6.43545 5.02686 6.53956V6.86121C5.02686 7.68028 6.58782 8.34424 8.51336 8.34424C10.4389 8.34424 11.9999 7.68028 11.9999 6.86121V6.53956C11.9999 6.43545 11.9745 6.33387 11.9265 6.23584C11.597 6.90916 10.1942 7.41513 8.51336 7.41513Z" fill="#8492CE"/>
  <path d="M8.51336 9.07089C6.83258 9.07089 5.42971 8.56498 5.10018 7.89163C5.05219 7.98971 5.02686 8.0913 5.02686 8.19535V8.51697C5.02686 9.33605 6.58782 10 8.51336 10C10.4389 10 11.9999 9.33605 11.9999 8.51697V8.19532C11.9999 8.09121 11.9745 7.98963 11.9265 7.8916C11.597 8.56495 10.1942 9.07089 8.51336 9.07089Z" fill="#8492CE"/>
</svg>
