<svg width="37" height="37" viewBox="0 0 37 37" fill="none" xmlns="http://www.w3.org/2000/svg">
  <path d="M37 18.5C37 28.7173 28.7173 37 18.5 37C8.28273 37 0 28.7173 0 18.5C0 8.28273 8.28273 0 18.5 0C28.7173 0 37 8.28273 37 18.5Z" fill="white" />
  <path fill-rule="evenodd" clip-rule="evenodd" d="M18.5 36C28.165 36 36 28.165 36 18.5C36 8.83502 28.165 1 18.5 1C8.83502 1 1 8.83502 1 18.5C1 28.165 8.83502 36 18.5 36ZM18.5 37C28.7173 37 37 28.7173 37 18.5C37 8.28273 28.7173 0 18.5 0C8.28273 0 0 8.28273 0 18.5C0 28.7173 8.28273 37 18.5 37Z" fill="#EEEDFF" />
  <path d="M27.3125 12.9375C27.3125 15.6299 25.1299 17.8125 22.4375 17.8125C19.7451 17.8125 17.5625 15.6299 17.5625 12.9375C17.5625 10.2451 19.7451 8.0625 22.4375 8.0625C25.1299 8.0625 27.3125 10.2451 27.3125 12.9375Z" fill="white" />
  <path fill-rule="evenodd" clip-rule="evenodd" d="M22.4375 17.0125C24.6881 17.0125 26.5125 15.1881 26.5125 12.9375C26.5125 10.6869 24.6881 8.8625 22.4375 8.8625C20.1869 8.8625 18.3625 10.6869 18.3625 12.9375C18.3625 15.1881 20.1869 17.0125 22.4375 17.0125ZM22.4375 17.8125C25.1299 17.8125 27.3125 15.6299 27.3125 12.9375C27.3125 10.2451 25.1299 8.0625 22.4375 8.0625C19.7451 8.0625 17.5625 10.2451 17.5625 12.9375C17.5625 15.6299 19.7451 17.8125 22.4375 17.8125Z" fill="#8076FA" />
  <path d="M20.7856 12.8973L22.3972 10.48L24.0088 12.8973L22.3972 15.3147L20.7856 12.8973Z" fill="white" />
  <path fill-rule="evenodd" clip-rule="evenodd" d="M22.3968 10.08C22.5306 10.08 22.6555 10.1468 22.7296 10.2581L24.3412 12.6754C24.4308 12.8098 24.4308 12.9848 24.3412 13.1192L22.7296 15.5365C22.6555 15.6478 22.5306 15.7147 22.3968 15.7147C22.2631 15.7147 22.1382 15.6478 22.064 15.5365L20.4524 13.1192C20.3629 12.9848 20.3629 12.8098 20.4524 12.6754L22.064 10.2581C22.1382 10.1468 22.2631 10.08 22.3968 10.08ZM21.266 12.8973L22.3968 14.5936L23.5277 12.8973L22.3968 11.2011L21.266 12.8973Z" fill="#8076FA" />
  <path d="M19.4709 20.25H12.4796C11.6982 20.25 11.0625 20.8857 11.0625 21.6672V26.9579C11.0625 27.7393 11.6982 28.375 12.4796 28.375H19.4709C20.2524 28.375 20.8881 27.7393 20.8881 26.9579V21.6672C20.8881 20.8857 20.2524 20.25 19.4709 20.25ZM20.3212 25.1628H18.2427C17.7739 25.1628 17.3924 24.7814 17.3924 24.3125C17.3924 23.8436 17.7739 23.4622 18.2427 23.4622H20.3212V25.1628ZM20.3212 22.8953H18.2427C17.4613 22.8953 16.8256 23.5311 16.8256 24.3125C16.8256 25.0939 17.4613 25.7297 18.2427 25.7297H20.3212V26.9579C20.3212 27.4267 19.9398 27.8081 19.4709 27.8081H12.4796C12.0108 27.8081 11.6294 27.4267 11.6294 26.9579V21.6672C11.6294 21.1983 12.0108 20.8169 12.4796 20.8169H19.4709C19.9398 20.8169 20.3212 21.1983 20.3212 21.6672V22.8953Z" fill="#8076FA" />
  <path fill-rule="evenodd" clip-rule="evenodd" d="M16.4526 14.2473C16.3991 14.2711 16.3213 14.3071 16.2277 14.3544L15.7765 13.462C15.8867 13.4063 15.9797 13.3632 16.0461 13.3336C16.0794 13.3189 16.1061 13.3074 16.1251 13.2994L16.1477 13.29L16.1545 13.2872L16.1567 13.2863L16.1578 13.2859C16.1578 13.2859 16.1581 13.2858 16.3438 13.75L16.5295 14.2142L16.5271 14.2152L16.513 14.2211C16.4998 14.2266 16.4793 14.2354 16.4526 14.2473ZM15.6363 14.7033C15.4547 14.8288 15.2821 14.9691 15.1414 15.1196L14.4112 14.4363C14.6147 14.2188 14.8471 14.033 15.068 13.8805L15.6363 14.7033ZM14.8487 15.5711C14.8244 15.6429 14.8125 15.7125 14.8125 15.7813C14.8125 15.7813 14.8125 15.7813 14.8125 15.7813L14.8125 16.4922L13.8125 16.4922L13.8125 15.7813C13.8125 15.5938 13.8455 15.416 13.9016 15.2504L14.8487 15.5711ZM14.8125 17.9141L14.8126 18.625L13.8126 18.625L13.8125 17.9141L14.8125 17.9141Z" fill="#8076FA" />
  <path fill-rule="evenodd" clip-rule="evenodd" d="M15.8848 17.7598L14.3762 19.2684L12.8164 18.2285L13.3711 17.3965L14.2488 17.9816L15.1777 17.0527L15.8848 17.7598Z" fill="#8076FA" />
</svg>
  