<svg width="10" height="9" viewBox="0 0 10 9" fill="none" xmlns="http://www.w3.org/2000/svg">
  <path d="M9.68736 1.40615H2.50008V0.562429C2.50008 0.448807 2.42383 0.345873 2.30696 0.302562C2.19009 0.259251 2.05634 0.283438 1.96635 0.36331L0.0914034 2.05076C-0.0304678 2.16044 -0.0304678 2.33875 0.0914034 2.44843L1.96635 4.13588C2.05634 4.21632 2.19009 4.2405 2.30696 4.19719C2.42383 4.15388 2.50008 4.05095 2.50008 3.93732V3.0936H9.68736C9.85985 3.0936 9.99985 2.9676 9.99985 2.81236V1.68739C9.99985 1.53159 9.85985 1.40615 9.68736 1.40615Z" fill="#8492CE"/>
  <path d="M9.90844 6.5512L8.0335 4.8632C7.94413 4.78276 7.80976 4.75857 7.69288 4.80245C7.57601 4.84632 7.49977 4.94869 7.49977 5.06231V5.90604H0.31249C0.139996 5.90604 0 6.03203 0 6.18728V7.31224C0 7.46749 0.139996 7.59348 0.31249 7.59348H7.49977V8.4372C7.49977 8.55083 7.57601 8.65376 7.69288 8.69707C7.80976 8.74094 7.94413 8.71676 8.0335 8.63632L9.90844 6.94888C10.0303 6.83919 10.0303 6.66089 9.90844 6.5512Z" fill="#8492CE"/>
</svg>
