<svg width="32" height="32" viewBox="0 0 32 32" fill="none" xmlns="http://www.w3.org/2000/svg">
  <circle cx="19" cy="11" r="5.6" fill="white" stroke="#8076FA" stroke-width="0.8" />
  <path d="M16.967 10.9504L18.9505 7.97521L20.934 10.9504L18.9505 13.9256L16.967 10.9504Z" fill="white" stroke="#8076FA" stroke-width="0.8" stroke-linejoin="round" />
  <path d="M15.3489 20H6.74418C5.78243 20 5 20.7824 5 21.7442V28.2558C5 29.2176 5.78243 30 6.74418 30H15.3489C16.3106 30 17.093 29.2176 17.093 28.2558V21.7442C17.093 20.7824 16.3106 20 15.3489 20ZM16.3954 26.0465H13.8372C13.2602 26.0465 12.7907 25.5771 12.7907 25C12.7907 24.4229 13.2602 23.9535 13.8372 23.9535H16.3954V26.0465ZM16.3954 23.2558H13.8372C12.8755 23.2558 12.093 24.0382 12.093 25C12.093 25.9618 12.8755 26.7442 13.8372 26.7442H16.3954V28.2558C16.3954 28.8329 15.9259 29.3023 15.3489 29.3023H6.74418C6.16714 29.3023 5.69766 28.8329 5.69766 28.2558V21.7442C5.69766 21.1671 6.16712 20.6977 6.74418 20.6977H15.3489C15.9259 20.6977 16.3954 21.1671 16.3954 21.7442V23.2558Z" fill="#8076FA" />
  <path d="M11.5 12C11.5 12 9 13 9 14.5C9 16 9.00008 18 9.00008 18" stroke="#8076FA" stroke-width="0.5" stroke-dasharray="1 1" />
  <path d="M7.5 17L9 18L10.5 16.5" stroke="#8076FA" />
</svg>
