<svg width="37" height="37" viewBox="0 0 37 37" fill="none" xmlns="http://www.w3.org/2000/svg">
  <circle cx="18.5" cy="18.5" r="18" fill="white" stroke="#B1AFFF" />
  <circle cx="22.4375" cy="12.9375" r="4.475" fill="white" stroke="#8076FA" stroke-width="0.8" />
  <path d="M20.7855 12.8973L22.3971 10.48L24.0087 12.8973L22.3971 15.3147L20.7855 12.8973Z" fill="white" stroke="#8076FA" stroke-width="0.8" stroke-linejoin="round" />
  <path d="M19.4709 20.25H12.4796C11.6982 20.25 11.0625 20.8857 11.0625 21.6672V26.9579C11.0625 27.7393 11.6982 28.375 12.4796 28.375H19.4709C20.2524 28.375 20.8881 27.7393 20.8881 26.9579V21.6672C20.8881 20.8857 20.2524 20.25 19.4709 20.25ZM20.3212 25.1628H18.2427C17.7739 25.1628 17.3924 24.7814 17.3924 24.3125C17.3924 23.8436 17.7739 23.4622 18.2427 23.4622H20.3212V25.1628ZM20.3212 22.8953H18.2427C17.4613 22.8953 16.8256 23.5311 16.8256 24.3125C16.8256 25.0939 17.4613 25.7297 18.2427 25.7297H20.3212V26.9579C20.3212 27.4267 19.9398 27.8081 19.4709 27.8081H12.4796C12.0108 27.8081 11.6294 27.4267 11.6294 26.9579V21.6672C11.6294 21.1983 12.0108 20.8169 12.4796 20.8169H19.4709C19.9398 20.8169 20.3212 21.1983 20.3212 21.6672V22.8953Z" fill="#8076FA" />
  <path d="M16.3438 13.75C16.3438 13.75 14.3125 14.5625 14.3125 15.7812C14.3125 17 14.3126 18.625 14.3126 18.625" stroke="#8076FA" stroke-width="0.5" stroke-dasharray="1 1" />
  <path d="M13.0938 17.8125L14.3125 18.625L15.5312 17.4062" stroke="#8076FA" />
</svg>
