<svg xmlns="http://www.w3.org/2000/svg" viewBox="0 0 111 32" fill="black"><path d="M109.755 23.5175C109.407 23.1859 108.999 23.0202 108.529 23.0202C108.198 23.0202 107.872 23.118 107.554 23.3109C107.236 23.5039 106.978 23.7974 106.785 24.1833C106.257 25.0964 105.711 25.8192 105.143 26.3437C104.575 26.8709 104.043 27.1345 103.543 27.1345C103.045 27.1345 102.572 26.9008 102.129 26.4279C101.686 25.9578 101.464 25.417 101.464 24.8083C101.464 24.6425 101.548 24.4632 101.714 24.2675C101.879 24.0746 102.151 23.8517 102.524 23.6017C102.899 23.3517 103.14 23.1859 103.252 23.1044C104.165 22.4685 104.907 21.762 105.475 20.9847C106.043 20.2102 106.325 19.1993 106.325 17.952C106.325 16.6775 105.855 15.5769 104.912 14.6475C103.969 13.7208 102.806 13.2561 101.423 13.2561C99.7598 13.2561 98.238 13.8784 96.852 15.1258C96.4933 15.4464 96.159 15.7997 95.8438 16.1774C95.7732 16.2644 95.6346 16.2101 95.64 16.0959C95.7107 14.7399 95.8166 13.5007 95.9552 12.3811C95.9743 12.2343 96.0993 12.1256 96.2487 12.1202C98.0776 12.0658 99.7 11.7587 101.11 11.1989C102.676 10.5766 103.88 9.71788 104.725 8.62272C105.57 7.52755 105.991 6.31553 105.991 4.98666C105.991 3.54637 105.499 2.35609 104.515 1.41311C103.532 0.472849 102.265 0 100.714 0C97.8874 0 95.5884 1.48921 93.8165 4.46761C93.2187 5.4731 92.7241 6.70142 92.3273 8.14171C92.1235 8.11725 91.955 8.10095 91.8219 8.10095C91.0691 8.10095 90.5256 8.37814 90.1914 8.93523C90.0528 9.16622 89.9685 9.43254 89.9549 9.70429C89.9305 10.1608 90.0691 10.5685 90.368 10.9272C90.5664 11.1636 90.9251 11.4408 91.4903 11.6337C91.5637 11.6582 91.6099 11.7261 91.599 11.8022C91.3246 13.8648 91.0909 16.8378 91.1479 19.1722C91.1534 19.4113 91.118 19.645 91.0311 19.8678C90.6316 20.9005 89.8028 21.9848 88.9141 22.5392C88.4494 22.8299 87.9603 23.0501 87.4467 23.205C87.6206 22.3598 87.7075 21.4793 87.7075 20.5662C87.7075 18.933 87.4032 17.5117 86.7945 16.3079C86.1857 15.104 85.4357 14.1964 84.5498 13.5849C83.9329 13.161 83.3378 12.8892 82.7644 12.7588C82.0877 12.5604 81.3404 12.4626 80.5197 12.4626C78.8837 12.4626 77.4027 12.9545 76.0738 13.9382C74.7449 14.9219 73.7041 16.2318 72.9568 17.865C72.6062 18.6286 72.3426 19.4194 72.1578 20.2401C71.7095 21.2429 71.0654 22.0093 70.2148 22.5419C69.8561 22.7647 69.4838 22.9468 69.0952 23.0908C68.9403 23.1479 68.7854 23.0202 68.8153 22.8571C68.9457 22.1207 69.011 21.357 69.011 20.569C69.011 18.9357 68.7066 17.5145 68.0979 16.3106C67.4891 15.1067 66.7391 14.1991 65.8532 13.5876C65.2363 13.1637 64.6412 12.8919 64.0678 12.7615C63.3911 12.5631 62.6438 12.4653 61.8231 12.4653C60.1871 12.4653 58.7061 12.9572 57.3772 13.9409C55.7712 15.1285 54.589 16.7916 53.8336 18.9276C53.7276 19.2292 53.6461 19.539 53.5564 19.8461C53.4205 20.3054 53.2574 20.7592 53.0727 21.2021C52.4721 22.656 51.8172 23.8925 51.1024 24.9116C50.1051 26.3383 49.135 27.0503 48.1947 27.0503C47.336 27.0503 46.6376 26.4905 46.0968 25.3681C45.7598 24.667 45.5288 23.6941 45.4011 22.4495C45.3522 21.9576 45.5098 21.4657 45.8223 21.0826C47.9039 18.5254 49.6024 15.9573 50.9149 13.3784C52.4802 10.3021 53.2629 7.5194 53.2629 5.02471C53.2629 3.58442 52.8553 2.42675 52.0373 1.55443C51.2193 0.6821 50.1731 0.24458 48.9013 0.24458C46.3522 0.24458 44.3983 1.80987 43.0423 4.94047C41.6835 8.07106 41.0068 12.9191 41.0068 19.4847C41.0068 23.5012 41.6156 26.4252 42.8357 28.2514C44.0532 30.0803 45.6891 30.9934 47.7381 30.9934C49.9556 30.9934 51.8987 29.6863 53.5645 27.0747C53.6542 26.9361 53.8635 26.9443 53.9314 27.0937C54.2194 27.7215 54.5809 28.2949 55.0293 28.8112C56.2902 30.2651 58.0131 30.9934 60.2034 30.9934C61.9209 30.9934 63.4509 30.5233 64.7961 29.5803C65.7037 28.9444 66.4701 28.159 67.0978 27.2269C67.2609 26.985 67.519 26.8274 67.8071 26.7839C69.1278 26.5937 70.5409 26.0883 71.7285 25.2159C71.8535 25.1235 72.0274 25.1915 72.06 25.3437C72.3399 26.6888 72.8943 27.8492 73.7286 28.8112C74.9895 30.2651 76.7124 30.9934 78.9028 30.9934C80.6202 30.9934 82.1502 30.5233 83.4954 29.5803C84.403 28.9444 85.1694 28.159 85.7971 27.2269C85.9602 26.985 86.221 26.8247 86.5091 26.7839C87.8787 26.5883 89.175 26.0747 90.3925 25.2377C90.5609 25.1208 90.724 24.9985 90.8816 24.8708C91.0175 24.7594 91.2213 24.8572 91.2267 25.0311C91.2621 26.3573 91.3083 27.4715 91.3708 28.3764C91.4251 29.208 91.6479 29.852 92.0366 30.3086C92.4252 30.7651 92.9496 30.9934 93.6154 30.9934C94.3356 30.9934 94.8954 30.7379 95.2976 30.2243C95.6998 29.7134 95.8737 29.0259 95.8166 28.1672C95.7514 27.1209 95.6971 26.1562 95.6509 25.2567C95.6509 25.1616 95.6482 25.0692 95.6482 24.9686C95.6482 23.3626 95.8764 21.9631 96.333 20.7728C96.7895 19.5825 97.3847 18.683 98.1184 18.0716C98.8521 17.4628 99.6212 17.1585 100.426 17.1585C100.923 17.1585 101.306 17.2753 101.567 17.5117C101.831 17.7482 101.961 18.058 101.961 18.4466C101.961 18.7781 101.809 19.1314 101.504 19.5064C101.2 19.8814 100.749 20.2673 100.154 20.6695C99.5587 21.0717 99.1782 21.3272 99.0125 21.4386C98.3738 21.8544 97.8901 22.2837 97.5586 22.7267C97.227 23.1696 97.0613 23.6832 97.0613 24.2648C97.0613 25.485 97.3575 26.6127 97.9553 27.6508C98.5505 28.6889 99.3413 29.5151 100.325 30.1238C101.309 30.7325 102.341 31.0369 103.42 31.0369C104.695 31.0369 105.885 30.5858 106.994 29.6863C108.1 28.7868 109.084 27.5041 109.945 25.8437C110.165 25.4551 110.277 25.0964 110.277 24.7621C110.274 24.2648 110.1 23.849 109.755 23.5175ZM47.0724 6.20955C47.5968 4.81002 48.124 4.11162 48.6512 4.11162C49.1214 4.11162 49.3578 4.55458 49.3578 5.44049C49.3578 6.465 49.0589 7.87811 48.4637 9.67983C47.8686 11.4816 47.0425 13.3566 45.9908 15.3105C45.8196 15.6258 45.6457 15.9329 45.469 16.2318C45.4418 16.2807 45.3657 16.259 45.3657 16.2046C45.3494 15.1285 45.5995 13.2452 45.7815 11.9245C46.1158 9.51406 46.5452 7.60908 47.0724 6.20955ZM63.5895 22.1859C62.69 21.3272 62.2389 20.1912 62.2389 18.7781C62.2389 18.1422 62.3286 17.6368 62.5079 17.2617C62.6873 16.8867 62.9291 16.7019 63.2362 16.7019C63.7335 16.7019 64.1439 17.0905 64.4618 17.865C64.7798 18.6395 64.9401 19.5281 64.9401 20.5255C64.9401 21.2592 64.883 21.9332 64.777 22.5528C64.739 22.7647 64.4999 22.8789 64.3178 22.762C64.0596 22.5962 63.8178 22.406 63.5895 22.1859ZM60.5757 27.1318C59.5213 27.1318 58.7197 26.7513 58.1653 25.9904C57.6109 25.2295 57.3337 24.2104 57.3337 22.9359C57.3337 21.8543 57.5267 20.7809 57.9153 19.7157C58.2115 18.8977 58.6055 18.1938 59.092 17.6041C59.1925 17.4818 59.3882 17.5824 59.3556 17.7346C59.2034 18.4656 59.1219 19.1477 59.1219 19.7782C59.1219 21.1369 59.4534 22.3544 60.1192 23.4359C60.7388 24.4414 61.6138 25.2975 62.796 25.9497C62.9291 26.023 62.9454 26.2024 62.8286 26.3002C62.1655 26.8519 61.4155 27.1318 60.5757 27.1318ZM82.2861 22.1859C81.3866 21.3272 80.9355 20.1912 80.9355 18.7781C80.9355 18.1422 81.0251 17.6368 81.2045 17.2617C81.3839 16.8867 81.6257 16.7019 81.9328 16.7019C82.4301 16.7019 82.8404 17.0905 83.1584 17.865C83.4764 18.6395 83.6367 19.5281 83.6367 20.5255C83.6367 21.2592 83.5796 21.9332 83.4736 22.5528C83.4356 22.7647 83.1964 22.8789 83.0144 22.762C82.7589 22.5962 82.5171 22.406 82.2861 22.1859ZM79.2751 27.1318C78.2207 27.1318 77.419 26.7513 76.8646 25.9904C76.3102 25.2295 76.033 24.2104 76.033 22.9359C76.033 21.8543 76.226 20.7809 76.6146 19.7157C76.9108 18.8977 77.3048 18.1938 77.7913 17.6041C77.8918 17.4818 78.0875 17.5824 78.0549 17.7346C77.9027 18.4656 77.8212 19.1477 77.8212 19.7782C77.8212 21.1369 78.1527 22.3544 78.8185 23.4359C79.43 24.4306 80.4517 25.4089 81.4926 25.9578C81.6257 26.0285 81.6366 26.2106 81.5197 26.3057C80.8594 26.8546 80.112 27.1318 79.2751 27.1318ZM100.426 3.86161C100.869 3.86161 101.222 4.0002 101.485 4.27739C101.749 4.55458 101.879 4.9296 101.879 5.39973C101.879 5.89704 101.673 6.39162 101.257 6.87534C100.841 7.36178 100.189 7.76941 99.3032 8.10095C98.5613 8.37813 97.6836 8.53847 96.6699 8.58467C96.727 8.37542 96.7895 8.1716 96.852 7.97594C97.7379 5.23396 98.9282 3.86161 100.426 3.86161Z" fill="white" style="fill: black;"/><path d="M39.0943 23.4334C38.5128 23.4334 37.9312 23.7377 37.3497 24.3464C35.7708 26.2025 33.9827 27.1292 31.9907 27.1292C29.1346 27.1292 27.5747 25.8003 27.303 23.1507C27.3845 23.1888 27.466 23.2296 27.5448 23.2649C28.5965 23.735 29.7325 23.9714 30.9526 23.9714C32.2 23.9714 33.3142 23.7078 34.2979 23.1806C35.2816 22.6534 36.0507 21.9469 36.6051 21.061C37.1595 20.175 37.4366 19.1913 37.4366 18.1097C37.4366 17.1124 37.1866 16.1912 36.6893 15.346C36.192 14.5008 35.4637 13.8296 34.5072 13.3296C33.5506 12.8323 32.4228 12.5823 31.1211 12.5823C29.5422 12.5823 28.1345 13.0198 26.9035 13.8921C25.6698 14.7645 24.7078 15.9439 24.0148 17.4249C23.811 17.8624 23.6398 18.3135 23.4957 18.7755C23.5093 18.5282 23.5175 18.2782 23.5175 18.0282C23.5175 16.3651 23.3517 15.0444 23.0202 14.0606C22.6886 13.0769 22.0364 12.585 21.0663 12.585C20.5119 12.585 19.9983 12.7997 19.5281 13.229C19.0553 13.6584 18.8216 14.1775 18.8216 14.7862C18.8216 14.9791 18.8624 15.3895 18.9466 16.0118C19.0308 16.6341 19.0716 17.2102 19.0716 17.7374C19.0716 19.512 18.8162 21.0909 18.3025 22.4741C17.7889 23.86 17.1802 24.9389 16.4736 25.7161C15.7671 26.4933 15.1502 26.8792 14.6257 26.8792C14.2643 26.8792 14.0034 26.7487 13.8349 26.4851C13.6692 26.2215 13.5849 25.7867 13.5849 25.1753C13.5849 24.7867 13.6692 23.928 13.8349 22.5991C13.9463 21.7675 14.055 20.8137 14.1665 19.7321C14.2779 18.6505 14.3322 17.5581 14.3322 16.4493C14.3322 15.7292 14.1393 15.1612 13.7507 14.7454C13.3621 14.3296 12.8213 14.1231 12.131 14.1231C11.4652 14.1231 10.9272 14.3459 10.5114 14.7889C10.0956 15.2319 9.88908 15.8134 9.88908 16.5336C9.88908 17.5173 9.83201 18.6206 9.72059 19.8381C9.56569 21.0745 9.31296 22.2132 8.95425 23.2459C8.52488 24.4796 8.01942 25.447 7.43787 26.1536C6.85632 26.8602 6.28836 27.2134 5.73398 27.2134C5.29102 27.2134 4.96492 27.0395 4.75839 26.6944C4.55186 26.3493 4.44587 25.7188 4.44587 24.803C4.44587 24.0285 4.51381 23.1208 4.6524 22.08C4.791 21.0419 4.87524 20.3843 4.90242 20.1071C5.23396 17.8923 5.39972 16.2999 5.39972 15.3297C5.39972 13.5008 4.67958 12.5877 3.23929 12.5877C2.51915 12.5877 1.95662 12.8241 1.55714 13.2943C1.15495 13.7671 0.953852 14.4438 0.953852 15.3297C0.953852 16.1884 0.788083 17.8081 0.456544 20.1914C0.429369 20.5229 0.345126 21.224 0.206533 22.2893C0.0679387 23.3573 0 24.2079 0 24.8438C0 26.8384 0.45111 28.3956 1.35061 29.5179C2.25011 30.6402 3.44854 31.2001 4.9459 31.2001C6.35901 31.2001 7.72321 30.5968 9.03849 29.3929C9.25589 29.1945 9.46514 28.988 9.66624 28.7706C9.81299 28.6157 10.0576 28.613 10.1989 28.7733L10.6174 29.2489C11.5441 30.3033 12.7153 30.8278 14.1284 30.8278C15.4845 30.8278 16.8976 30.2245 18.3678 29.0206C19.8352 27.8167 21.0608 26.2215 22.0446 24.2432C22.4413 23.4442 22.7538 22.629 22.9903 21.8001C22.9848 21.955 22.9794 22.1126 22.9794 22.2703C22.9794 24.0149 23.3381 25.553 24.061 26.8819C24.7811 28.2108 25.7866 29.2434 27.0747 29.9772C28.3628 30.7109 29.8384 31.0778 31.4988 31.0778C35.018 31.0778 37.9258 29.6103 40.2248 26.6727C40.6134 26.1753 40.8064 25.6753 40.8064 25.178C40.8064 24.6807 40.6406 24.2649 40.3091 23.9307C39.9667 23.5991 39.5645 23.4334 39.0943 23.4334ZM31.1999 16.452C31.8086 16.452 32.3005 16.6314 32.6755 16.9928C33.0506 17.3543 33.2353 17.8244 33.2353 18.4059C33.2353 19.0446 32.9799 19.5962 32.4663 20.0691C31.9527 20.5419 31.2543 20.7756 30.3684 20.7756C29.4498 20.7756 28.5694 20.637 27.7269 20.3707C27.5747 20.3218 27.4878 20.1615 27.5285 20.0066C27.7215 19.2783 28.015 18.6315 28.4172 18.0744C29.189 16.9928 30.1183 16.452 31.1999 16.452Z" fill="black"/></svg>