<svg enable-background="new 0 0 299.998 299.998" viewBox="0 0 299.998 299.998" xmlns="http://www.w3.org/2000/svg"><path d="m149.997 0c-82.84 0-149.996 67.158-149.996 149.995s67.156 150.003 149.995 150.003 150-67.163 150-150.003-67.16-149.995-149.999-149.995zm10.358 168.337c-.008.394-.067.788-.122 1.183-.039.296-.057.599-.124.89-.067.303-.182.602-.28.905-.117.366-.226.731-.379 1.076-.029.06-.039.124-.065.184-.226.482-.488.934-.775 1.362-.018.026-.042.052-.06.078-.327.48-.7.916-1.092 1.325-.109.112-.22.213-.335.319-.345.329-.708.63-1.094.905-.119.086-.233.176-.358.259-.495.324-1.014.609-1.554.843-.117.052-.239.083-.358.13-.456.176-.918.322-1.395.433-.171.041-.34.078-.514.109-.612.112-1.232.189-1.86.189-.127 0-.257-.039-.384-.044-.602-.023-1.198-.07-1.771-.192-.179-.039-.355-.117-.534-.166-.534-.145-1.056-.306-1.554-.529-.057-.029-.117-.034-.174-.06l-57.515-27.129c-5.182-2.443-7.402-8.626-4.959-13.808 2.443-5.179 8.626-7.402 13.808-4.959l42.716 20.144v-89.535c0-5.729 4.645-10.374 10.374-10.374s10.374 4.645 10.374 10.374v105.901h.002c0 .062-.018.124-.018.187z"/></svg>
