<svg enable-background="new 0 0 511.999 511.999" height="512" viewBox="0 0 511.999 511.999" width="512" xmlns="http://www.w3.org/2000/svg"><g fill="#6534ff"><path d="m45 238.666c-4.604 5.76-45 57.26-45 92 0 29.407 23.917 53.334 53.333 53.334s53.333-23.927 53.333-53.333c0-34.74-40.396-86.24-45-92-4.041-5.063-12.624-5.063-16.666-.001z"/><path d="m510.875 411.229-72.271-144.552 1.354-2.729c5.271-10.552 8.042-22.344 8.042-34.104 0-20.073-8.146-39.729-22.333-53.938l-74.958-74.948c-10.084-10.073-23.459-15.625-37.709-15.625h-19.958c-19.931 0-37.763 10.949-47.04 28.507l-80.522-48.319c-1.646-1-3.542-1.521-5.479-1.521h-128.001c-4.042 0-7.729 2.281-9.542 5.896l-21.333 42.666c-1.646 3.302-1.479 7.229.458 10.375 1.959 3.146 5.396 5.063 9.084 5.063h135.604l70.457 44.023-2.27 4.539c-1.708 3.427-1.458 7.5.667 10.688 11.417 17.125 13.667 38.74 6.021 57.833l-7.042 17.625c-1.313 3.26-.917 6.958 1.021 9.875l42.667 64c1.979 2.969 5.313 4.75 8.875 4.75h4.073l50.385 100.771c1.813 3.615 5.5 5.896 9.542 5.896h128c1.615 0 3.107-.415 4.478-1.056.094-.043.199-.022.293-.069l42.667-21.333c5.27-2.636 7.395-9.042 4.77-14.313zm-180.208-229.896c23.521 0 42.667 19.135 42.667 42.667s-19.146 42.667-42.667 42.667-42.667-19.136-42.667-42.667 19.146-42.667 42.667-42.667zm6.583 245.333-44.878-89.773 35.71-11.901 6.584 6.039c17.792 16.313 28 39.51 28 63.635 0 5.896 4.771 10.667 10.667 10.667s10.667-4.771 10.667-10.667c0-29.16-12.15-57.064-33.079-77.286l17.767-5.922 70.891 115.208z"/></g></svg>
